<?xml version="1.0" encoding="utf-8"?>
<!-- Generator: Adobe Illustrator 23.0.6, SVG Export Plug-In . SVG Version: 6.00 Build 0)  -->
<svg version="1.1" id="Layer_1" xmlns="http://www.w3.org/2000/svg" xmlns:xlink="http://www.w3.org/1999/xlink" x="0px" y="0px"
	 viewBox="0 0 174 256.4" style="enable-background:new 0 0 174 256.4;" xml:space="preserve">
<style type="text/css">
	.st0{fill:#8F90A0;}
	.st1{fill:#CDCDD7;}
	.st2{fill:#F1F2F8;}
	.st3{fill:#DDDDE5;}
	.st4{fill:#A25941;}
	.st5{fill:#B2B2BF;}
	.st6{fill:#FFFFFF;}
	.st7{fill:#F9B450;}
	.st8{fill:#454560;}
	.st9{fill:#69697F;}
	.st10{fill:#EF795C;}
	.st11{opacity:0.7;fill:#8F90A0;enable-background:new    ;}
	.st12{fill:#9FBEE5;}
	.st13{opacity:0.6;fill:#8F90A0;enable-background:new    ;}
	.st14{fill:none;stroke:#D1445C;stroke-width:0.83;stroke-linecap:round;stroke-linejoin:round;}
	.st15{opacity:0.6;fill:none;stroke:#8F90A0;stroke-width:1.24;stroke-miterlimit:10;enable-background:new    ;}
	.st16{fill:#F3921A;}
	.st17{fill:#729CD3;}
	.st18{opacity:0.3;fill:#8F90A0;enable-background:new    ;}
	.st19{fill:#F9CAB5;}
	.st20{opacity:0.5;fill:#8F90A0;enable-background:new    ;}
	.st21{fill:#1B1934;}
	.st22{fill:none;stroke:#F5A996;stroke-width:0.41;stroke-miterlimit:10;}
	.st23{fill:#724850;}
	.st24{opacity:0.58;fill:#8F90A0;enable-background:new    ;}
	.st25{opacity:0.5;fill:#D1445C;enable-background:new    ;}
	.st26{fill:none;stroke:#FFEBD0;stroke-width:0.41;stroke-miterlimit:10;}
	.st27{fill:none;stroke:#FFEBD0;stroke-width:0.62;stroke-miterlimit:10;}
	.st28{opacity:0.4;fill:#8F90A0;enable-background:new    ;}
	.st29{fill:#FFFFFF;stroke:#729CD3;stroke-width:0.83;stroke-miterlimit:10;}
	.st30{fill:#F3A188;}
	.st31{opacity:0.5;fill:#F3921A;enable-background:new    ;}
	.st32{fill:none;}
	.st33{fill:#FCD9A7;}
</style>
<title>SDCRT-1129_Illus_Launch_01_WebHomepage_GoAnywhere</title>
<g>
	<g>
		<path class="st0" d="M1.8,244.1l22.5-26.9l36.1-39.8l12.7-5.6l8.4,11.1l6.1,4.2c0,0,22,28.2,35.2,31c0,0,41.3,16.7,49.7,28.2
			c0,0,9.4,14.4-68,5.6c0,0-31.4-4.6-51.1,0.9C53.4,252.9,5.1,260.8,1.8,244.1z"/>
		<path class="st1" d="M20.7,229.6c2.8-0.2,5.8-2.1,8.7-2.4c6.2-0.7,8.1,2.2,11.3,7.1c1.3,2.1,4.2,3.4,6.3,4.6
			c9.1,5.2,19.1-2.9,25.8-8.6c5.4-4.6,11.5-5.6,16.3,0.9c4.4,5.9,13.9,17.7,22.6,15.4c4.3-1.2,6.5-6.5,9.5-9.5
			c4.1-4.1,10.2-6.4,16.3-4.5c0,0,11.4,4.8,14.1-0.9l-6.1-2.9l-41.2-28.5l-24-21.9l-13.6-0.5c0,0-5.8,1.1-6.9,1.9s-9.4,15-21.9,25.1
			c0,0-15.1,12.3-20.4,19.6C14.4,228.6,17.7,229.7,20.7,229.6z"/>
		<path class="st2" d="M16.9,227.1c2.8-0.2,5.8-2.1,8.7-2.4c6.2-0.7,9.5,1.6,12.6,6.6c1.2,2.1,2.9,3.9,5,5.2
			c9.1,5.2,19.1-2.9,25.8-8.6c5.4-4.6,11.5-5.6,16.3,0.9c4.4,5.9,13.9,17.7,22.6,15.4c4.3-1.2,6.5-6.5,9.5-9.5
			c4.1-4.1,11.7-4.7,17.8-2.8c0,0,7.1,2.6,9.9-3.1v-1.4l-44.6-29.5l-22.5-22.1l-15.2-0.3c0,0-11,0.5-12.1,1.4s-4.2,15.6-16.7,25.7
			C34.1,202.6,8.6,227.7,16.9,227.1z"/>
		<path class="st3" d="M54.8,182c7.6,4.4,24.8,13.5,21.5,25.4c0,0-5.9,9.5,4.4,17.3c1.4,1.1,2.3,2.7,2.4,4.5v0.1
			c0.3,6.8,2.4,13.4,6,19.1l1.3,2l30.1,3.2l27,1.3l18.3-1.7c5.3-1.3,8.8-4.4,5.9-7.9l-3-3.1l-12.4-8l-11.1-5.7l-0.2-1.4l-23-14.7
			L96.2,194l-14-14.2l0.3-3.9l-9.4-2.2l-14.7,2.2C55.6,176.6,52.3,180.6,54.8,182z"/>
		<path class="st4" d="M50.1,173c0,0-1.3-7.3,16.2-7.3h0.6v-11.5l15-0.3l0.5,19.2L50.1,173z"/>
		<path class="st5" d="M54.1,181c4.1-0.6,11.3,0.9,16.4,3.2c0,0,5.9,5.5,13.5,6.2c10.2,0.9,34.5,20.8,3.7-5.1l-7.3-7.4l-20.3-0.8
			l-10.3,0.7l0,0C50.4,179.6,50.1,181.7,54.1,181z"/>
		<path class="st0" d="M121.7,226.2c4.1-0.7,5.7-0.6,10.8,1.8c0,0,4.9,6.3,9.5,8c12.3,4.8,37.5,11.7,17.7,0.4l-14.5-8.1l-1.7-3
			l-20.5-3.1l-10.5,3l0,0C113.2,227.1,117.7,226.8,121.7,226.2z"/>
		<path class="st6" d="M49.1,173.1v0.4v5.6c0,0.2,0.1,0.3,0.3,0.3c0,0,0,0,0,0h1.8c0.2,0,0.3-0.1,0.3-0.3c0,0,0,0,0,0
			c0-0.5,0.3-0.9,0.6-1.2c0.7-0.7,1.8-0.6,2.5,0.1c0.1,0.1,0.1,0.1,0.1,0.2c0.2,0.3,0.3,0.6,0.3,0.9c0,0.1,0,0.2,0,0.3h4.5
			c0.2,0,0.3-0.1,0.3-0.3c0,0,0,0,0,0c0-0.5,0.3-0.9,0.6-1.2c0.7-0.7,1.8-0.6,2.5,0.1c0.1,0.1,0.1,0.1,0.1,0.2
			c0.2,0.3,0.3,0.6,0.3,0.9c0,0.1,0,0.2,0,0.3h4.5c0.2,0,0.3-0.1,0.3-0.3c0-0.5,0.3-0.9,0.6-1.2c0.7-0.7,1.8-0.6,2.5,0.1
			c0.1,0.1,0.1,0.1,0.1,0.2c0.2,0.3,0.3,0.6,0.3,0.9c0,0.1,0,0.2,0,0.3h4.5c0.2,0,0.3-0.1,0.3-0.3c0-0.5,0.3-0.9,0.6-1.2
			c0.7-0.7,1.8-0.6,2.5,0.1c0.1,0.1,0.1,0.1,0.1,0.2c0.2,0.3,0.3,0.6,0.3,0.9c0,0.1,0,0.2,0,0.3h2.3c0.1,0,0.3-0.1,0.3-0.3
			c0,0,0,0,0,0v-6c0-0.1-0.1-0.3-0.3-0.3c0,0,0,0,0,0h-33C49.2,172.8,49.1,172.9,49.1,173.1C49.1,173.1,49.1,173.1,49.1,173.1z"/>
		<path class="st3" d="M84.2,147.7c0,0,1.1,3.7-1.4,3.6c0,0,1.7,4-3.6,3.1H63.7c0,0-2.9-2.2,0.1-6.9l3.1-0.4L84.2,147.7z"/>
		<path class="st4" d="M145.3,223.1c0,0,1.2-13-16.3-13l0,0l0.3-12.5l-15.2-0.7l-1,17.6L145.3,223.1z"/>
		<path class="st6" d="M145.1,222.3l-0.1,0.4l0,0l-1.3,5.4c0,0.2-0.2,0.2-0.4,0.2l-1.7-0.4c-0.2,0-0.3-0.2-0.2-0.3c0,0,0,0,0,0
			c0.1-0.5,0-0.9-0.3-1.3c-0.5-0.8-1.6-1-2.4-0.5c-0.1,0-0.1,0.1-0.2,0.1c-0.2,0.2-0.4,0.5-0.5,0.9c0,0.1,0,0.2,0,0.3l-4.4-1.1
			c-0.2,0-0.3-0.2-0.2-0.3c0.1-0.5,0-0.9-0.3-1.3c-0.5-0.8-1.6-1-2.4-0.5c-0.1,0-0.1,0.1-0.2,0.1c-0.2,0.2-0.4,0.5-0.5,0.9
			c0,0.1,0,0.2,0,0.3l-4.4-1.1c-0.2,0-0.3-0.2-0.2-0.3c0.1-0.5,0-0.9-0.3-1.3c-0.5-0.8-1.5-1.1-2.3-0.6c-0.4,0.2-0.7,0.6-0.8,1.1
			c0,0.1,0,0.2,0,0.3l-4.4-1.1c-0.2,0-0.3-0.2-0.2-0.3c0,0,0,0,0,0c0.1-0.5,0-0.9-0.3-1.3c-0.5-0.8-1.6-1-2.4-0.5
			c-0.1,0-0.1,0.1-0.2,0.1c-0.2,0.2-0.4,0.5-0.5,0.9c0,0.1,0,0.2,0,0.3l-2.2-0.5c-0.2,0-0.2-0.2-0.2-0.3c0,0,0,0,0,0l1.4-5.8
			c0-0.2,0.2-0.2,0.3-0.2c0,0,0,0,0,0l32,7.7C145.2,222,145.2,222.2,145.1,222.3z"/>
		<path class="st7" d="M129.6,200.2l-8-0.1c-0.8,0.1-1.3,0.7-1.3,1.5l0,0c-0.1,0.8,0.5,1.4,1.2,1.5l8,0.1"/>
		<path class="st7" d="M129.5,205.1l-8-0.1c-0.8,0.1-1.3,0.7-1.3,1.5l0,0c-0.1,0.8,0.5,1.4,1.3,1.5l8,0.1"/>
		<path class="st3" d="M133.6,191.8c0,0,0.9,3.8-1.6,3.5c0,0,1.4,4.1-3.8,2.9l-15.5-1c0,0-4-0.8-0.7-5.3l-1.3-2.4L133.6,191.8z"/>
		<path class="st8" d="M149.9,120.7c0.2,0,3.4,1.3,5.2-5.1c0,0,3.3-14.8-0.8-14.3c0,0-4.1,4.6-2.3,14.2l-3.7,0.1l0.2,3l1.5,2.4
			L149.9,120.7z"/>
		<path class="st9" d="M147.3,97.6c2.7,1,5.2,2.2,7.7,3.7c0,0-4.3,4.6-3,14.2l-4.3,0.2l-2-9.4L147.3,97.6z"/>
		<path class="st0" d="M151.1,97c0,0-6.6,22.9,0.3,23.7c0,0-1.6,3.6-18.2-2.8l5.5-27.4L151.1,97z"/>
		<path class="st9" d="M139.7,103.5c0,0,0.6,13.8,6.8,18c0,0-2.9,0.3-10.4-2.3l0.5-15L139.7,103.5z"/>
		<path class="st10" d="M88.9,96.2c0,0-25.2-5.7-28.8,3.3l-3,48.1l28,1.1l0.6-27.9l19.9,1.9c0,0,5.3,19.7,2.8,38.5L109,190l26.2,3
			l1.4-20.2c0.8-0.3,1.4-1,1.5-1.8l0.5-19c0,0-0.2-2.4-2-2.3l1.9-35L88.9,96.2z"/>
		<path class="st11" d="M101.9,101.8l24.7,15.8l2.3,7.2c0,0,3.9,7,2.1,11.3l-2.7,13.9l8.3-0.3l1.9-34.7l-8.9-4.9L101.9,101.8z"/>
		<path class="st6" d="M99.6,100.2c0,0,13.2,0.6,22.4,4c0,0,10.9,4.5,17.1,4.9v5.1c0,0.6-0.4,1-1,1c-0.1,0-0.2,0-0.3,0
			c-3.5-0.9-13.3-3.8-16.9-6.9L99.6,100.2z"/>
		<path class="st3" d="M99.6,100.2c0,0,13.2,0.6,22.4,4c0,0,10.9,4.5,17.1,4.9l0.1,2.8c0,0-13.9-1.4-18.3-5.3L99.6,100.2z"/>
		<path class="st7" d="M66.4,156.3h8c0.8,0.1,1.3,0.7,1.3,1.5l0,0c0.1,0.8-0.5,1.4-1.3,1.5h-8"/>
		<path class="st7" d="M66.4,161.1h8c0.8,0.1,1.3,0.7,1.3,1.5l0,0c0.1,0.8-0.5,1.4-1.3,1.5h-8"/>
		<path class="st12" d="M143,35.6c0,0,17,13.3,11.2,53c-0.3,2.4-2,4.4-4.3,5.1c-3.4,0.8-6.8,1.1-10.3,0.9l-3.2-30.9l-6-14.5
			l0.3-10.9L143,35.6z"/>
		<path class="st12" d="M151.1,47.7c0,0,11.4,11,4,26.2l-2.7-9L151.1,47.7z"/>
		<path class="st7" d="M71.8,47.1c0.1,0.1,0.1,0.1,0.2,0.2L71.8,47.1l-0.4-1.7l-0.7,0.2C71.1,46.1,71.5,46.6,71.8,47.1z"/>
		<path class="st13" d="M144,36.8c0,0,5.9,8.9,3.5,12.2c0,0,8.4,10.4,0.6,26.2c-3.9,1.2-8.1,1.6-12.2,1.3l10.7,17.3
			c0,0,7.3,1.6,8-7.9l0.6-12.9c3.9-8.2,2.4-17.9-3.7-24.6l-1.4-1.9C150.1,46.5,147.1,39,144,36.8z"/>
		<path class="st14" d="M139,52.1c0,0,7.9-1.4,11.9-4.8"/>
		<path class="st15" d="M139.8,52.7c0,0,7.9-1.4,11.9-4.8"/>
		<path class="st15" d="M142.5,76.4c0,0,8,0.5,12.8-1.8"/>
		<path class="st7" d="M144.7,89.6l-2.8-7.7c0,0,6.4-7.5,1-12.6c0,0,8.2-11.5-4.6-18.2c0,0,1.2-12.7-13.7-15.4l7.1-6.7
			c0,0,11.5-22-18.2-27.3c-2.5-0.4-5.1,0-7.3,1.2L100.7,6l-1.2,2.5l7.9,6.6l8,2.9l2.6,7l-3.5,14l-8.7,2.6l-8-1c0,0-4.7,3.1-6.1,6.4
			c0,0-1.2-2.4-3-1.7l-5.8,6.9l2,2.7l-2.4,4.7L74.3,52c0.1,0.6,0.1,1.1,0,1.7c-0.1,1.2-0.6,2.4-0.7,3.7c-0.1,1.9,0.9,3.3,2.1,4.7
			c1.7,1.9,3.4,3.5,4.4,5.8c1.3,3.1,0.4,8.7,3.7,9.4c15.8,3.1,4.6,2.3,2.9,3.7c3.6-0.7-2.1,3.7-2.1,3.7s-2.3,7.3,5.5,11.7l12.6,4.7
			l10.1,2l25.5,6.3C138.3,109.3,150.4,110,144.7,89.6z"/>
		<path class="st16" d="M116.4,19.6l2.6,6.7l-2.4,9.4c3.2-0.4,6.5-0.5,9.7-0.4l5.4-6.1c0,0,11.2-23-17-24.3c-1.2,0-2.5,0.2-3.6,0.8
			l-6.1,4.3l-4.6,0.7l7.9,6.3L116.4,19.6z"/>
		<path class="st17" d="M128.4,36.9c0,0,2.6-2.7,8.3-3.3c0,0,5.8-0.1,6.3,2c0,0-8.7,1.9-10.3,4.2l-4.2-1.8L128.4,36.9z"/>
		<path class="st7" d="M94.8,74.6c-4.5,2.2-8.2,5.9-10.3,10.5c0,0,0.1,8.9,4.4,11.2l9.7,3.8l5.2,1l24.7,5.6l9.4,2.8
			c0,0,9.7,2,8-14.9L141.8,82c0,0,7.5-5.9,1.2-12.1c0,0-4.8,6.2-8.9,5.9c0,0-3.7,11.9-17.9,5.3c0,0-16.4,8.4-20.6-4.1
			C95.7,77,96.2,78,94.8,74.6z"/>
		<path class="st16" d="M97.8,40.6c0,0,12.5,22,23,8.3l5-9l-6.4-4.1l-12.5,4.8H97.8z"/>
		<path class="st16" d="M122.3,50.2c0,0,2.5-8.6,11.5-10.2l-6.4-2.6l-4,5l-1.4,5.3L122.3,50.2z"/>
		<path class="st18" d="M97.8,40.6c0,0,12.5,22,23,8.3l5-9l-6.4-4.1l-12.5,4.8H97.8z"/>
		<path class="st18" d="M122.3,50.2c0,0,2.5-8.6,11.5-10.2l-6.4-2.6l-4,5l-1.4,5.3L122.3,50.2z"/>
		<path class="st8" d="M128.9,37.2c-4,3.9-6.4,9.2-6.4,14.8l-5.4,1.2c0.4-6.6,3.1-12.8,7.5-17.6c0.4-0.4,0.9-0.4,1.4-0.2l3.6,1.3
			c0.3,0.2,0.4,0.5,0.4,0.8L128.9,37.2z"/>
		<ellipse class="st19" cx="107.2" cy="29.1" rx="9.9" ry="12"/>
		<path class="st2" d="M118.3,14.7c0,0-2.9-10.5-11.6-3.1c0,0-4.4-7.8-10.4-2.7c-0.9,1.6-0.9,3.6,0.2,5.1c0,0-11.4,0-3.1,9.6l3.3,7
			c0,0-6.2,12.5,3.1,11.1c0,0,4.6,6.8,8.7,1.2c0,0,7.1,4.3,6.9-2.5c0,0,13.7,0.2,5.4-13.3C120.8,27.2,131.2,15.7,118.3,14.7z
			 M113.6,38.5c0,0-6.4-4.1-6.6,2c0,0-2.3-4.1-5.4-1.2c0,0,3.5-4.5-3.3-9l1.9-4.1c0,0,2.7-1.8-0.8-3.3c0,0,6.4,1,3.5-5.1
			c0,0,2.1,4.3,6.9,1.2c0,0-1,7.4,5.6,4.9c0,0-6,5.3,0.4,8C115.6,31.9,110.7,33.1,113.6,38.5z"/>
		<path class="st1" d="M101.9,38.5c0.6-1.6,1.1-4.8-3.8-8.1l1.9-4.1c0,0,3-2-0.6-3.5c0,0,6,0.9,3.7-4.8c-1.9,0.5-3.9-0.2-5-1.9
			c2.9,6.2-3.5,5.1-3.5,5.1c3.5,1.4,0.8,3.3,0.8,3.3l-0.8,1.8l2.1,4.4l-0.2,0.5c1.6,1.8,1.8,4.5,0.4,6.4
			C99.2,35.5,101.2,37.5,101.9,38.5z"/>
		<path class="st1" d="M113.7,13c1.5,0.1,3,0.4,4.4,1.1c-0.6-1.6-2.5-5.7-6.6-5.1C112.5,10.2,113.3,11.5,113.7,13z"/>
		<path class="st1" d="M102.2,38.8L102.2,38.8L102.2,38.8C102.2,38.9,102.2,38.9,102.2,38.8z"/>
		<path class="st1" d="M118.9,14.9c3.7,3.5-2.8,10.7-2.8,10.7c8.3,13.5-5.4,13.3-5.4,13.3c0.2,6.8-6.9,2.5-6.9,2.5
			c-0.6,1-1.6,1.7-2.8,2.1c1.7,1.6,4.6,3.3,7.3-0.4c0,0,7.1,4.3,6.9-2.5c0,0,13.7,0.2,5.4-13.3C120.7,27.3,130.7,16.3,118.9,14.9z"
			/>
		<path class="st10" d="M66.3,46.7c0,0-6.3-6.1-1.3-12.3l7.7,0.2l5.1,2.4c0,0,0.8,5.7-3.5,8.9l-6.5,2.1L66.3,46.7z"/>
		<path class="st20" d="M66.3,46.7c0,0-6.3-6.1-1.3-12.3l7.7,0.2l5.1,2.4c0,0,0.8,5.7-3.5,8.9l-6.5,2.1L66.3,46.7z"/>
		<path class="st16" d="M86.1,82c1-0.3,2.5-2.6,3-3.4c0.6-0.8,1.1-1.7,1.5-2.7c-4.9-1.9-7.9-6.8-7.6-12c0.2-2.9,0.7-5.7,1.6-8.4
			l2-1.8c0,0-4.3-5.2-8.4-5.2l-0.7,0.1l-1.6-4.1L67,47.1l-1.3,0.3l1.3,3l-0.9,1.2c0,0-7.5,16.5,7.9,19.8l1,0.3
			c0,0,1.4,9.9,10.8,10.4C85.9,82.1,86,82,86.1,82z"/>
		<polygon class="st8" points="62.2,21.4 74.8,21.9 75,37.5 61.9,37.7 		"/>
		<ellipse class="st21" cx="62.2" cy="29.5" rx="2.8" ry="8.2"/>
		<polygon class="st9" points="107.7,25.7 103.9,26.9 108.5,28.5 107.1,27.2 110,26.8 106.5,26.6 		"/>
		<polygon class="st8" points="91.3,24 103.5,24.3 103.9,32.5 91.3,32.8 		"/>
		<ellipse class="st8" cx="103.2" cy="28.4" rx="2.1" ry="4.2"/>
		<path class="st9" d="M93.1,37c0.1-0.1,0.3-0.2,0.4-0.2L93,21.4l-18.7-0.8v17.7l18.2-0.7C92.6,37.4,92.8,37.2,93.1,37z"/>
		<ellipse class="st9" cx="92.5" cy="29.5" rx="2.7" ry="8.2"/>
		<ellipse class="st5" cx="74.2" cy="29.4" rx="3.2" ry="8.8"/>
		<ellipse class="st21" cx="74.2" cy="29.4" rx="2.3" ry="7.3"/>
		<ellipse class="st0" cx="62.1" cy="29.4" rx="3.1" ry="8.2"/>
		<ellipse class="st21" cx="62.1" cy="29.4" rx="2.2" ry="6.7"/>
		<path class="st20" d="M137.4,172.3C137.2,172.3,137.5,172.2,137.4,172.3L137.4,172.3l0.1-0.1c0.1-0.1,0.2-0.3,0.3-0.4
			c0.2-0.3,0.2-0.7,0.3-1c-3.2,0.1-6.4-0.1-9.6-0.4l-1.9-2.3c0,0-3.6,4.5,9.8,4.7C136.6,172.5,137,172.3,137.4,172.3z"/>
		<path class="st20" d="M138.3,159.7c-0.1-2.1-0.1-4.2,0.1-6.3l-10.4,0.5c0,0-1.5-0.1-1.2,1.6l-0.1,4.3L138.3,159.7z"/>
		<path class="st10" d="M138.3,156.8v-3.6c0,0,0.6-1.9-3-1.8l-12.5,0.6c0,0-1.8-0.1-1.5,1.6l-0.1,4.3l17.2-0.3L138.3,156.8z"/>
		<ellipse class="st10" cx="131.4" cy="155.4" rx="1.4" ry="1.3"/>
		<polygon class="st11" points="129.9,172.7 131.4,185.7 114.6,184.8 135.3,188.7 136.5,172.9 		"/>
		<polyline class="st22" points="118.8,116 122.1,146.9 123,177.4 		"/>
		<path class="st22" d="M83.4,95.6c0,0-16.7,2.3-16.6,8.4l-0.6,26.4"/>
		<ellipse class="st23" cx="73.9" cy="157.7" rx="1" ry="1"/>
		<ellipse class="st23" cx="122" cy="201.6" rx="1" ry="1"/>
		<ellipse class="st23" cx="121.9" cy="206.4" rx="1" ry="1"/>
		<ellipse class="st23" cx="74" cy="162.5" rx="1" ry="1"/>
		<path class="st5" d="M82.8,151.3l-6.3,0.8l6.4,1.1C82.8,153.2,83.4,152.6,82.8,151.3z"/>
		<path class="st23" d="M129,210.5c0,0,10.9,3.5,10.1,10l6.1,1.6C145.2,222.1,144.6,209,129,210.5z"/>
		<path class="st5" d="M132,195.3c0,0-4-0.8-5.9,0.2c-0.9,0.4-1.8,0.5-2.8,0.4c0,0,3.6,0.4,8.6,1.3l0.2-0.1
			C132,197.1,132.9,196,132,195.3z"/>
		<polygon class="st5" points="112,191.9 123.7,191.7 111.1,190.1 		"/>
		<path class="st5" d="M63.6,147.9l9.7,0.3c-2.1,0.8-4.3,1.3-6.5,1.6c0,0-2.8-0.1-2.8-0.7c0.1-0.5-0.9-0.2-0.9-0.2L63.6,147.9z"/>
		<path class="st1" d="M109.4,218.5c0-0.3,1.9-1.5,1.9-1.5c4-2.4,8.3-0.5,11.6,2.1c0.8,0.5,1.5,1.2,2,2c0.7,1.3,1.7,2.4,2.8,3.4
			c0.8,0.7,1.6,1.3,2.5,1.9l2,1c0,1.2,0.1,0.3,0.1,0.3c0.8,0.4,0.6,0.2-0.2,0.2h-1.3c-2.8,0.1-5-0.6-7.7-0.5l-4.4,0.1h-0.1
			c-1.1-0.1-16.2-2-16.3-2.6s6.1-5.6,6.8-6.1l0.1-0.1L109.4,218.5z"/>
		<path class="st2" d="M106.3,226.6c0,0,4.3-9.3,11.7-5.1l2.4,1.3C115.4,222,110.2,223.3,106.3,226.6z"/>
		<path class="st24" d="M59.6,34.3c0,0,6.9,0.7,10.6-0.1l1.2-0.1l0.5,1.3c1.5,0.3,3,0.3,4.5,0c0,0,16.5,1.5,18.7-5.3
			c0,0,7.7,0.3,9.7-3.8c0,0,2.7,3.9,0,6.3l-9.9,0.2c0,0-0.3,5.4-3.4,5l-17.2,0.6c0,0-1.2-0.2-1.5-0.8l-10.9,0.2
			C60.7,37,59.8,35.8,59.6,34.3z"/>
		<path class="st10" d="M90,45.1l-0.5-4c0,0,4.6-2.6,3-13.7c0,0-3.3-3.7-3.4,1.5c0,0,0.1,5.3-1,8.3h-0.2c0,0,0.9-7.2-0.4-10.6
			c0,0-4.5-2.9-3,3.3c0,2.5-0.1,5-0.3,7.5L84,37.3c0,0,0.7-8.1-1.4-10.6c0,0-3.2-1-2.8,1.7l1,5.8l-0.1,4c-0.1,0.4,0,0.3,0-0.1
			c0.2-2.3-0.8-6.4-2.3-6.8c0,0-2.9-0.3-0.9,4l0.7,4c0,0-4.4,10.5,5,12.6L90,45.1z"/>
		<path class="st10" d="M65.6,47.4l10.3-2.9c0.8,1.2,1.4,2.6,1.6,4.1l-10.4,2C66.1,49.8,65.6,48.6,65.6,47.4z"/>
		<path class="st20" d="M65.6,47.4l9.9-3.9c0,0,1.9,3.1,2,5l-10.4,2C66.2,49.8,65.6,48.6,65.6,47.4z"/>
		<path class="st10" d="M82.5,52.4l2.4,3l8.4-6.7c0,0-0.7-3.5-3.2-3.8l-7,7.2"/>
		<path class="st25" d="M82.5,52.4l2.4,3l8.4-6.7c0,0-0.7-3.5-3.2-3.8l-7,7.2"/>
		<path class="st23" d="M82.1,156.4h-0.2l-0.1-1.8L67,154.4v1h0.8c2-0.8,8,0.5,8,0.5c0.6,0.5,1.3,0.9,2,1.1l0,0c0,0,4.5,2.5,1.8,5.9
			c0,0-3.7,7-3.3,9.8l6.2,0.1L82.1,156.4z"/>
		<path class="st20" d="M89.7,26.5c0,0,3,0.4,2.4,5.5c0,0,0.6,6.1-4.3,9.1l0.4,4.6L86,49.1l3.1-3.1c0,0,1.3,3.6,0.2,5.7l4.1-2.9
			c0,0-0.6-3.3-3.3-3.9L89.6,41c0,0,4.7-2.6,3-13.5l-1.1-1.1C91.5,26.4,90.1,25.6,89.7,26.5z"/>
		<path class="st26" d="M107.1,54.8c0.2-3.3,1.4-8.3,1.3-11.6"/>
		<path class="st27" d="M96,98.6c-2.7-3.8-1.1-7.1,0.1-10.7c0.5-1.9,1.3-3.6,2.4-5.2"/>
		<path class="st14" d="M140.7,74.9c0,0,9.2,2.4,14.8-1.1"/>
		<path class="st16" d="M142.8,82.2c0,0,6.4-6.7,0.1-12.9c0,0-0.7,4.6-7.8,6.7c0,0-3.7,11.9-17.9,5.3c0,0-11.8,6.1-17.9,0.2
			c-1.2-1.2-2.1-2.7-2.6-4.3c0,0,0.5,1-0.9-2.5c0,0-2.9,2.3-5.2,1.2c2.4,5.1,10.1,11.3,20.5,14.4c0,0,14.3,6.2,17.1,16l1.4,0.3
			l9.4,2.8c0,0,9.6,2,8-14.9L142.8,82.2z"/>
		<path class="st18" d="M142.8,82.2c0,0,6.4-6.7,0.1-12.9c0,0-0.7,4.6-7.8,6.7c0,0-3.7,11.9-17.9,5.3c0,0-11.8,6.1-17.9,0.2
			c-1.2-1.2-2.1-2.7-2.6-4.3c0,0,0.5,1-0.9-2.5c0,0-2.9,2.3-5.2,1.2c2.4,5.1,10.1,11.3,20.5,14.4c0,0,14.3,6.2,17.1,16l1.4,0.3
			l9.4,2.8c0,0,9.6,2,8-14.9L142.8,82.2z"/>
		<polygon class="st11" points="102.8,112.5 85.5,114.1 80.7,108 82.6,118 80.5,126.4 76.8,134 79.1,142 79,142.7 62.5,143.2 
			78.6,145.4 85,145.3 85.6,120.8 105.5,122.7 		"/>
		<path class="st8" d="M133.9,78.6c-1.1,1.7-2.8,3.1-4.7,3.9c1.9,1.7,9.6,7.9,18.7,8l-0.4-7.4C147.5,83,138.3,83,133.9,78.6z"/>
		<path class="st28" d="M133.3,79.5c-1.4,2.1-3.2,2.7-4.7,3.3c1.9,1.7,9.2,12.2,19.4,9.5l-0.6-8.3C147.5,84,137.7,83.9,133.3,79.5z"
			/>
		<ellipse class="st16" cx="128.4" cy="65.7" rx="4.2" ry="4.3"/>
		<ellipse class="st29" cx="127.2" cy="65.3" rx="3.8" ry="3.7"/>
		<path class="st12" d="M124.6,67.6l2.5-4.2l2.5,4.2C129.6,67.6,127.6,70.2,124.6,67.6z"/>
		<path class="st30" d="M110.6,31.4c-0.2,0.8-0.6,1.4-1.1,2c-1.6,1.5-4,1.8-5.8,0.6c0.7,1.5,2.5,2.4,4.1,2
			C111.1,35.1,110.7,31.2,110.6,31.4z"/>
		<path class="st28" d="M145.7,92.1c0,0,3.8,17.7-37.7,9.7l18.3,4.1c0,0,14.2,5.6,17.1,2.6C143.5,108.6,150.6,102.6,145.7,92.1z"/>
		<path class="st28" d="M124.8,6.9c0,0,9.6,7.2-1.5,26.5l0.6,3.5l7.8-7.8c0,0,7.8-17.8-7-24L124.8,6.9z"/>
		<path class="st31" d="M82.7,64.8c0-3.2,0.7-6.3,1.9-9.3l0.2-0.2l-2.3-3c-0.1,0,0,0,0.5-0.3c0,0,0.4-0.3,0.4-0.3
			c-2.2-0.3-4.4-1.4-5.2-3.3c-0.1,0-0.1,0-0.1,0c-0.7,0.3-0.7,0.1-0.8-0.6c0-0.3-0.3-0.8-0.3-1.1c-0.2-0.4-0.4-0.9-0.6-1.3
			c-0.2-0.2-0.6-1.1-0.7-1.2V44c1.3-1.6,2-3.7,2-5.8H75c-0.8,0.2-1.7-0.2-2.2-0.9l-9.8,0.2v0.6c0,0,7.7,0,9.2,2.2
			c0.3,1,0.8,2,1.6,2.7c-0.2,1.3-1.2,2.3-2.4,2.6c0,0-0.1,0.1-0.2,0.3c1-0.1,1.9,0,2.8,0.2c0.4,0.1,0.8,0.3,1,0.7
			c0.5,0.3,0.7,0.9,0.4,1.4c-0.1,0.1-0.1,0.2-0.2,0.3c-0.4,0.3-0.8,0.5-1.3,0.5c-0.1,0.1-0.2,0.1-0.3,0.1l-0.9,0.2h0.1
			c0,0,7.4,0.6,6.6,9.5c0,0-4.3,16.9,3.6,22.6l3.1,0.3c2.8-2,4.3-6,4.3-6C86,73.9,83,69.7,82.7,64.8z"/>
		<path class="st20" d="M82.7,64.8c0-3.2,0.7-6.3,1.9-9.3l0.2-0.2l-2.3-3c-0.1,0,0,0,0.5-0.3c0,0,0.4-0.3,0.4-0.3
			c-2.2-0.3-4.4-1.4-5.2-3.3c-0.1,0-0.1,0-0.1,0c-0.7,0.3-0.7,0.1-0.8-0.6c0-0.3-0.3-0.8-0.3-1.1c-0.2-0.4-0.4-0.9-0.6-1.3
			c-0.2-0.2-0.6-1.1-0.7-1.2V44c1.3-1.6,2-3.7,2-5.8H75c-0.8,0.2-1.7-0.2-2.2-0.9l-9.8,0.2v0.6c0,0,7.7,0,9.2,2.2
			c0.3,1,0.8,2,1.6,2.7c-0.2,1.3-1.2,2.3-2.4,2.6c0,0-0.1,0.1-0.2,0.3c1-0.1,1.9,0,2.8,0.2c0.4,0.1,0.8,0.3,1,0.7
			c0.5,0.3,0.7,0.9,0.4,1.4c-0.1,0.1-0.1,0.2-0.2,0.3c-0.4,0.3-0.8,0.5-1.3,0.5c-0.1,0.1-0.2,0.1-0.3,0.1l-0.9,0.2h0.1
			c0,0,7.4,0.6,6.6,9.5c0,0-4.3,16.9,3.6,22.6l3.1,0.3c2.8-2,4.3-6,4.3-6C86,73.9,83,69.7,82.7,64.8z"/>
		<path class="st9" d="M104.7,22.7c1.3,0.1,2.5,0.6,3.4,1.4l0.6-0.2c0,0-0.2-1.7-3.6-2.6L104.7,22.7z"/>
		<line class="st32" x1="84.1" y1="51" x2="83" y2="52.2"/>
		<path class="st33" d="M109.1,70.3l-0.1,0.8C109.1,70.8,109.1,70.5,109.1,70.3z"/>
		<path class="st33" d="M111.7,60.3c5-4.7,9.1-6.7,11.5-7.6l5.3-2.4c0,0-11.8-1.4-17.6,7.6l-2.9,3.7c0,0-0.3-12-13.5-13.3
			c-0.3,0.2-1,0.3-1.3,0.4c0,0-0.1,0.1-0.1,0.1l-8.2,6.4c0,0,16-8,22.9,8.2c0.9,2.1,1.4,4.5,1.3,6.8l0.7-6.2c0,0,4.4,1.6,4.8,3.9
			C114.6,68,114.9,63.2,111.7,60.3z"/>
		<path class="st2" d="M76.2,179.4c0.2,0,0.3-0.1,0.3-0.3c0-0.5,0.3-0.9,0.6-1.2c0.6-0.7,1.7-0.7,2.4-0.1c0.3,0.3,0.5,0.8,0.5,1.2
			c0,0.1,0,0.2,0,0.3h2.3c0.2,0,0.3-0.1,0.3-0.3v-6c0-0.2-0.1-0.3-0.3-0.3H67.9c1.9,1.3,3.3,3.4,3.7,5.7c0.1,0.2,0.1,0.4,0.1,0.6
			c0,0.1,0,0.2,0,0.3L76.2,179.4z"/>
		<path class="st6" d="M126.8,100.8l-4.5-0.7c-0.5-0.1-0.9-0.5-0.9-1.1c0,0,0-0.1,0-0.1l0,0c0.1-0.6,0.6-1,1.2-0.9l4.5,0.7
			c0.5,0.1,0.9,0.6,0.9,1.1c0,0,0,0,0,0.1l0,0C127.9,100.4,127.4,100.8,126.8,100.8C126.8,100.8,126.8,100.8,126.8,100.8z"/>
		<ellipse class="st6" cx="130.4" cy="100.2" rx="1.1" ry="1.1"/>
		<path class="st6" d="M53.8,186.4c0,0,0,7.9-10.8,16.9c0,0-12.5,9.6-14.9,14.2c0,0,12.7-6.3,16.6-9.3l-2.5,10.1
			c6.1-3.8,10.1-10.1,11.1-17.2L53.8,186.4z"/>
		<path class="st1" d="M113,205.9l-15.5-11.1l3.1,3.1l12.4,8.2C112.9,206,113,206,113,205.9z"/>
		<path class="st1" d="M171.8,245.3l-3-3.1l-12.4-8l-11.1-5.7v-0.3h-0.2v0.5c-2.8,5.7-9.9,3.1-9.9,3.1c-6.1-1.9-13.7-1.4-17.8,2.8
			c-3,3-5.2,8.3-9.5,9.5c-8.7,2.4-18.2-9.4-22.6-15.4c-1-1.4-2.3-2.6-3.8-3.5c1,1,1.6,2.4,1.7,3.9v0.1c0.3,6.8,2.4,13.4,6,19.1
			l1.3,2l30.1,3.2l27,1.3l18.3-1.7C171.2,251.9,174.6,248.8,171.8,245.3z"/>
	</g>
</g>
</svg>
