<?xml version="1.0" encoding="utf-8"?>
<!-- Generator: Adobe Illustrator 23.0.6, SVG Export Plug-In . SVG Version: 6.00 Build 0)  -->
<svg version="1.1" id="Layer_1" xmlns="http://www.w3.org/2000/svg" xmlns:xlink="http://www.w3.org/1999/xlink" x="0px" y="0px"
	 viewBox="0 0 223 251" style="enable-background:new 0 0 223 251;" xml:space="preserve">
<style type="text/css">
	.st0{fill:#EF795C;}
	.st1{fill:#DDDDE5;}
	.st2{fill:#454560;}
	.st3{fill:#F5A996;}
	.st4{fill:#323249;}
	.st5{fill:#FFEBD0;}
	.st6{fill:#FFA488;}
	.st7{fill:#F4E4D9;}
	.st8{fill:#454F5E;}
	.st9{fill:#FFFFFF;}
	.st10{fill:#D1445C;}
	.st11{fill:#E7E7ED;}
	.st12{fill:#A61F30;}
	.st13{fill:#C1C1CC;}
	.st14{fill:#26263B;}
	.st15{fill:#9F334A;}
	.st16{fill:#AFAFBE;}
	.st17{fill:#10101C;}
	.st18{fill:#7E1826;}
	.st19{fill:#A5354C;}
	.st20{fill:#B53B53;}
	.st21{fill:#901B2B;}
	.st22{fill:#0770E3;}
	.st23{fill:#084EB2;}
	.st24{fill:#F9B450;}
	.st25{fill:#B83C53;}
	.st26{fill:#E18B96;}
	.st27{fill:#922F45;}
	.st28{fill:#732539;}
	.st29{fill:#9D6170;}
	.st30{fill:#BA2639;}
	.st31{fill:#C84E5C;}
	.st32{fill:#821B2B;}
	.st33{fill:#AB1221;}
	.st34{fill:#97101E;}
	.st35{fill:#729CD3;}
	.st36{fill:#741624;}
	.st37{fill:#5C7DB2;}
	.st38{fill:#CD3849;}
	.st39{fill:#F08C77;}
	.st40{fill:#7081A7;}
	.st41{fill:#9FBEE5;}
	.st42{clip-path:url(#SVGID_2_);}
	.st43{fill:#880811;}
	.st44{fill:#67060E;}
	.st45{fill:#1F0A15;}
	.st46{fill:#8F2E44;}
	.st47{fill:#0D040A;}
	.st48{fill:#69697F;}
	.st49{fill:#634E42;}
	.st50{fill:#3E3A3B;}
	.st51{fill:#261811;}
	.st52{fill:#CDCDD7;}
	.st53{fill:#49475D;}
	.st54{fill:#23223D;}
	.st55{fill:#75263A;}
	.st56{fill:#961F30;}
	.st57{fill:#691624;}
	.st58{fill:#5E1F31;}
	.st59{fill:#4A6496;}
	.st60{fill:#5D121E;}
	.st61{fill:#943046;}
	.st62{fill:#790D19;}
	.st63{fill:#8099C1;}
	.st64{clip-path:url(#SVGID_4_);}
	.st65{fill:#B12831;}
	.st66{fill:#EB7058;}
	.st67{fill:#997E87;}
	.st68{fill:#910B12;}
	.st69{fill:#760710;}
	.st70{fill:#7C040B;}
	.st71{fill:#B82536;}
	.st72{fill:#5F060D;}
	.st73{fill:#630309;}
	.st74{fill:#692946;}
	.st75{fill:#FDBD6D;}
	.st76{fill:#1B1934;}
	.st77{fill:#A2A2AF;}
	.st78{fill:#3C3C55;}
	.st79{fill:#36364E;}
	.st80{fill:#753248;}
	.st81{fill:#662739;}
	.st82{fill:#32283B;}
	.st83{fill:#6A3A52;}
	.st84{fill:#292535;}
	.st85{fill:#562637;}
	.st86{fill:#57576F;}
	.st87{fill:#89899B;}
	.st88{fill:#302F4A;}
	.st89{fill:#DEBECF;}
	.st90{fill:#D9B8C8;}
	.st91{fill:#8F90A0;}
	.st92{fill:#B595A3;}
	.st93{fill:#FFB99D;}
	.st94{fill:#0661CA;}
	.st95{fill:#9C8191;}
</style>
<title>SDCRT-1129_Illus_Launch_01_WebHomepage_KeepItSimple</title>
<path class="st0" d="M156.5,34.8c0,0-3.1-6.1-3.3-10.6s5.8-13.8,5.8-13.8l0.8,4.7c0,0,2.3-2.8,8.5-3.1s12.5,1.4,17.6-1.5
	c0,0,0.7,0.9-0.6,3.3c2.3-0.4,4.7,0,6.9,1c-0.4,1.3-0.8,2.6-1.1,4c-0.2,1.5,1.9,5.1,1.8,7s-5.4,6.2-2.9,14.1s-7.6,7.9-7.6,7.9"/>
<path class="st1" d="M217.8,233.9c-4.3,1.5-26.4,2.4-41.1,3.5c-4.4,0.3-8.1,0.8-12.6,1c-19.9,0.5-68.2,19.1-83.6,6
	c-10.5-9-16-3.5-35.7-4.5c-3.3-0.2-32.9,1.4-32.9-2.8c0-1.9,13.5-13.3,37.2-12.7c8.2,0.2,10.8-4.6,19.1-5
	c12.6-0.6,23.2,9.3,35.8,9.3c10.4,0,20.6,1.4,31,1.6c6.3,0.2,17.8,0.2,23.3-0.6C203.5,223.9,230.9,229.4,217.8,233.9z"/>
<path class="st1" d="M192.3,238.3c0,1.7-7.8,3-17.4,3s-17.4-1.3-17.4-3s7.8-3,17.4-3S192.3,236.6,192.3,238.3z"/>
<path class="st2" d="M111.7,22.7c0,0-5.6-28.2,7.6-18.6c0,0,11.8,7,0.1,16.7L111.7,22.7z"/>
<path class="st3" d="M113,21.1c0,0-3.7-20.1,5-13.8c0,0,8.9,4.4,0.1,12.6L113,21.1z"/>
<path class="st2" d="M58.5,42.4c0,0-18.2,1-12.1,10c0,0,6,1.5,20.6-6L58.5,42.4"/>
<path class="st4" d="M53,43.2c-3.7,0.8-7.9,2.5-7.9,5.8c0.1,1.2,0.5,2.4,1.2,3.4c0.2,0,0.5,0.1,0.7,0.1l7.6-2
	c-0.3-1.7-0.8-3.8-1.3-6C53.2,44.1,53.1,43.6,53,43.2"/>
<path class="st5" d="M185.7,41.5c0,0,7.8,20.9-9,24.9c0,0-12.7,5-17.4-8.7l-2.5-15.2l6-4.6l4.1-8.7l9.3-1.7l4.4,4.2L185.7,41.5z"/>
<path class="st0" d="M177.3,40c0,0-1.8-2.9-7-2.5c-0.1,0.7-0.1,1.3,0,2C170.6,39.9,175,39.6,177.3,40z"/>
<path class="st6" d="M166.8,29.3c0,0-4.1,6.3-1.8,13.5c0.5,1.1,0.8,2.3,0.9,3.6l-2.4,6.8c0,0,2.1,2.7,5,1.6c0,0,1,11.1,2.1,11.6
	c0,0,7.7-0.7,8.2-0.7c-2.7,1-5.5,1.5-8.4,1.5c-6-0.3-10.6-5-11.5-11l-3.4-23.6l4.1-3.8L166.8,29.3z"/>
<path class="st5" d="M186.6,43.1c0,0,8.3-4.6,4.3,5.3c0,0,1.1,3.3-2.5,3.3l-3.9-1.7L186.6,43.1z"/>
<path class="st5" d="M167.7,66.6c4.9,0.6,9.9-0.4,14.2-2.8c0,0,1.1,11,0.5,17.5c-0.2,2.3-7.8-1.9-11.7-2.3l-0.5-0.1
	C169.8,76.9,167.7,66.6,167.7,66.6"/>
<path class="st7" d="M159.3,46.8c0-1,0.6-1.8,1.5-2.1c1.6-0.6,3.4-0.3,3.6,1.2s-0.4,2-2.9,2S159.3,46.8,159.3,46.8z"/>
<path class="st8" d="M161.6,45.7c0,0,1.2,0.5,0.9,1.6c-0.2,0.8-1,1.2-1.8,1c-0.3-0.1-0.5-0.2-0.7-0.5c-0.5-0.9-0.3-1.5,0.1-1.9
	C160.6,45.8,161.1,45.7,161.6,45.7z"/>
<path class="st9" d="M171.2,44.6c0-1.1,0.8-2,1.8-2.2c1.9-0.6,3.8-0.4,4,1.2s-0.5,2.1-3.4,2.2S171.2,44.6,171.2,44.6z"/>
<path class="st8" d="M173.4,43.5c0,0,1.3,0.5,1,1.7s-2.3,1.6-2.8,0.6c-0.5-0.6-0.4-1.5,0.2-2c0,0,0,0,0.1,0
	C172.3,43.5,172.9,43.4,173.4,43.5z"/>
<path class="st0" d="M157,43c0,0,0.4-3.4,5.3-5.2c0.3,0.6,0.6,1.2,0.8,1.8C163,40,158.8,41.7,157,43z"/>
<path class="st6" d="M187.5,48.1l-0.6-4.1l1.8-0.6l0.7,1.3C189.4,44.8,191.1,47.2,187.5,48.1z"/>
<path class="st10" d="M33.9,66.8l4.4,56L73,144.6l54.7-13.8l24.4-11.8L149,49.2c-0.2-4-2.7-7.5-6.5-8.8c-8.1-2.9-25.9-4.8-64.3,4.7
	l-35.9,9.7C37,56.3,33.4,61.3,33.9,66.8"/>
<path class="st11" d="M35.6,59.8c-2.2,3-3.2,6.6-2.9,10.3l4,50.7c0.3-0.2,0.7-0.3,1-0.4l-4-51.3c-0.1-1.3,0-2.6,0.2-3.8
	C33.9,63.3,34.6,61.5,35.6,59.8 M144.4,41.3c2.5,1.5,4.1,4.1,4.5,7C148.7,45.4,147,42.8,144.4,41.3 M126.8,38.1L126.8,38.1"/>
<path class="st12" d="M37.7,57.5c-0.8,0.7-1.4,1.5-2.1,2.3c-1,1.6-1.6,3.5-1.8,5.5C34.3,62.4,35.7,59.7,37.7,57.5 M126.8,38.1
	c0.5,0.4,0.9,1,1.2,1.7c0.9,1.3,0.6,2.3,0,3c0,0.1-0.1,0.2-0.1,0.3l0,0c-0.1,0.6-0.4,1.2-0.7,1.7l0.2-0.1l0,0
	c-0.4,0.7-1.2,1.3-2,1.5c-0.6,1.1-1.8,1.8-3.1,1.7c-1.3-0.1-2.5-0.4-3.7-1c-0.2,0.2-0.4,0.3-0.6,0.4c-1.8,1.9-4.3,3-7,3
	c-1.2,0-2.4-0.2-3.6-0.6v-0.1h-0.1l3.7,7.3c0.2,1.3,0,2.6-0.7,3.7c0,0.1,0,0.2,0,0.3h-0.3c-0.3,0.3-0.6,0.6-1,0.8
	c0,2.5-0.9,5.3-2.1,5.9c-0.6,0.3-1.3,0.5-1.9,0.5c-1.9,0-3.6-1.2-4.2-3.1l-2-5.9l-6.9-11.1h-0.3c-0.6,0.2-1.2,0.2-1.9,0.2h-0.1
	l0.6,0.3l-11.5,1l-1.4,0.4c0,0.1,0.1,0.2,0.1,0.3c0.2,0.5,0.3,0.9,0.4,1.4c0.3,0.1,0.5,0.4,0.7,0.7c0.2,1.1,0,2.3-0.6,3.2
	c-0.4,0.7-1.1,1.1-1.8,1.1c-0.3,0-0.5-0.1-0.8-0.2l-4-1.6L71,55.1l-14.7,1.9c-3.9,3.2-6.1,8.1-5.7,13.2l4.1,51.6l-2.2,1l8,4.6
	l6.3-6.9L64,107.4c-1.2-14.3,10-16,15.2-16c0.9,0,1.8,0,2.6,0.2c0.6,0,1.2,0.1,1.7,0.3h0.5c4.1,0,7.9,1.9,10.4,3.5
	c1.1-0.2,2.2-0.4,3.3-0.4c3,0,5.9,0.9,8.4,2.6l6.6,7.2l5.5-8.1L115,86.3c-0.3-0.9,0.1-1.9,1-2.2c0.1,0,0.1,0,0.2,0l10.9-2h0.2
	l0.4-0.1c6.1-13,13.8-15.6,19-15.6c0.9,0,1.8,0.1,2.8,0.2L149,48.9v-0.6c-0.4-2.9-2.1-5.5-4.5-7c-0.3-0.2-0.7-0.4-1.1-0.5
	c-3.3-1.3-8.4-2.5-16.3-2.7L126.8,38.1"/>
<path class="st13" d="M50.3,52.3c-0.8,0.1-1.6,0.2-2.4,0.2c-0.3,0-0.6,0-0.8,0l-2,0.6c-2.6,0.7-4.9,2-6.8,3.8c0.5-0.4,1-0.7,1.5-1
	c0.5-0.3,1-0.6,1.5-0.8c1.9-1.4,4.2-1.8,6.6-2.1L50.3,52.3"/>
<path class="st14" d="M54.7,50.4l-7.6,2c0.2,0,0.5,0,0.8,0c0.8,0,1.6-0.1,2.4-0.2l3.9-1l0.6-0.3C54.8,50.7,54.7,50.6,54.7,50.4"/>
<path class="st15" d="M39.8,55.9c-0.5,0.3-1,0.6-1.5,1l-0.6,0.7C38.3,56.9,39,56.4,39.8,55.9"/>
<path class="st16" d="M41.3,55c-0.5,0.3-1,0.5-1.5,0.8c0.5-0.3,1-0.5,1.6-0.7L41.3,55L41.3,55 M53.2,51.8c-1.1,0.3-2.1,0.4-2.9,0.6
	L47.9,53c0.8-0.1,1.6-0.2,2.4-0.3h0.3l1.6-0.4C52.5,52.2,52.9,52,53.2,51.8"/>
<path class="st17" d="M54.2,51.3l-3.9,1c0.8-0.1,1.8-0.3,2.9-0.6C53.6,51.6,53.9,51.4,54.2,51.3"/>
<path class="st16" d="M33.8,65.3c-0.2,1.3-0.3,2.6-0.2,3.8l4.1,51.3c0.1-0.1,0.2-0.1,0.4-0.1l-4.2-53.5
	C33.8,66.3,33.8,65.8,33.8,65.3"/>
<path class="st18" d="M49.6,54.4c-2,0.9-4.2,1.4-6.4,1.5c-1.7,0-1.7-0.7-1.7-0.7v-0.1c-0.5,0.2-1.1,0.4-1.6,0.7
	c-0.8,0.5-1.5,1-2.2,1.6c-2,2.2-3.3,4.9-3.8,7.8c0,0.5,0,1,0,1.5l4.3,53.5c1.7-0.5,3.4-0.7,5.1-0.7c1.5,0,3,0.1,4.5,0.4l4.8,2.7
	l2.2-1l-4.1-51.6c-0.4-5.1,1.7-10,5.7-13.2l-3.7,0.5h-0.1c-1.4-0.2-2.5-1.3-2.6-2.8L49.6,54.4 M52.2,52.2l-1.6,0.4
	C51.2,52.5,51.7,52.4,52.2,52.2 M78.6,49.5h-0.1l-1.3,0.2c0,0.1,0.1,0.1,0.1,0.2L78.6,49.5"/>
<polyline class="st10" points="214.6,125.7 183.9,105.8 156.6,129.4 183.9,156.4 200.9,171.2 214.6,125.7 "/>
<polyline class="st10" points="197,135.2 165.1,115.4 151.8,136.5 171,170.1 196.5,172.1 197,135.2 "/>
<path class="st19" d="M194,132.8l-0.1,0.5l2.1,1.3c0-0.2,0.1-0.3,0.1-0.5L194,132.8"/>
<path class="st19" d="M193.9,133.3l-1.2,5.6c-1.2,5.2-4.2,8.4-8.7,8.4c-1.2,0-2.3-0.2-3.4-0.6l0,0l-1.4-0.4
	c-1.5-0.4-3.8-0.9-5.9-1.4l-0.3,0.6l0.3,4.9c-1.1,2.2-2.7,4.2-4.7,5.6c0.4-0.1,0.7-0.3,1-0.6l-1.1,3.1l3.4,0.9l4.8,1.1l19.4,8.3
	l0.1,1h0.1l-0.3-29.3c-0.3-2-0.2-4,0.2-5.9L193.9,133.3"/>
<path class="st1" d="M149.8,66.7v0.7c0.4-0.2,0.9-0.3,1.4-0.4C150.8,66.9,150.3,66.8,149.8,66.7"/>
<path class="st20" d="M149.4,66.6v1l0.4-0.1v-0.7L149.4,66.6"/>
<path class="st21" d="M118.4,96.7l-5.5,8.1l6.4,7l1.4-2c-5.1-1.7-1.6-3.3-1.6-3.3c-2.1-0.4-2.2-1.6-2.1-2.5c0.1-0.4,0.5-0.7,0.9-0.7
	c0.1,0,0.1,0,0.2,0l2.6,0.6L118.4,96.7 M146.6,66.3c-5.2,0-12.9,2.6-19,15.6l1-0.2c0.2,0,0.3-0.1,0.5-0.1c1,0,1.9,0.7,2.2,1.7
	l2.3,7.3l3.9-5.8c1.3-10.9,6.4-15.6,11.8-17.4v-1C148.4,66.4,147.5,66.3,146.6,66.3"/>
<path class="st21" d="M83.9,136.4l-3.1,2.1l3.7,2.3l-0.7,0.4l0,0c0.5-0.1,1.1-0.1,1.6-0.1h0.1l-0.3-0.8L83.9,136.4 M79.3,91.4
	c-5.2,0-16.5,1.7-15.2,16l2.8,12.9l7.4-8.2c-0.2-0.6-0.4-1.2-0.6-2l-0.1-0.3c-0.2-0.6-0.3-1.2-0.4-1.8c-1-4.5-1.1-10.2,2.9-13.5
	c2-1.7,4.5-2.6,7.1-2.7l0,0h0.4c-0.6-0.1-1.1-0.2-1.7-0.3C81,91.5,80.1,91.4,79.3,91.4"/>
<path class="st22" d="M169.8,152l11.5-24.2l11-53.8l-28.5-6.4c0,0-23.2-7.5-26.1,17.4L115,118.4l27,31.1L169.8,152"/>
<path class="st23" d="M122,119.2l15.2-16.5c2.8-23.6,11.3-35.9,18.3-36.1c-2.1-0.6-16.2-5.5-19,18.2l-22.7,33.5l27,31.1l7.9,0.7
	L122,119.2z"/>
<path class="st23" d="M172.9,144.6l0.3,5.8c0,0-9.4,21.8-30.7-11.6l-23.2-26.9l7.4-10.8l35.8,32.3l13.2,10L172.9,144.6"/>
<path class="st22" d="M180.8,92.9l-1.9,40.1L157,114.2l-7.2,12l18.8,17.3c1.9,0.8,10.3,2.6,11.9,3.1c6.3,2,10.7-1.4,12.1-7.8
	l8.1-36.6c7.8-23.2-8.9-28.3-8.9-28.3L180.8,92.9"/>
<path class="st24" d="M92.2,220.4L90,238.9c-0.1,1.1-1.7,5.3,1.7,5.6c3.1,0.3,5.9-1.7,6.6-4.8l4.3-19.1L92.2,220.4"/>
<path class="st24" d="M52.4,201.2l-2.2,18.6c-0.1,1.1-1.9,4.7,1.7,5.6c3.1,0.3,5.9-1.7,6.6-4.8l4.3-19.1L52.4,201.2"/>
<path class="st10" d="M83.8,140.5l-36-20.5c0,0-20.5-4.4-15.5,15.5l12.8,51l0.8,12c0.2,2.5,1.7,4.8,3.9,5.9l42.5,21l0.4-17.8
	l-7.8-33.8L83.8,140.5"/>
<path class="st25" d="M44.3,184.1l0.5,1.8C44.7,185.3,44.5,184.7,44.3,184.1 M41.6,173.1l0.8,3.4C42.3,175.4,42,174.2,41.6,173.1
	 M43.5,168.4c-0.8,0.6-1.8,0.9-2.8,1l0.9,3.6L43.5,168.4 M49.2,154.9l-3.5,1.9c0.3,1.8,0.5,3.6,0.4,5.5L49.2,154.9 M77.1,144.7
	L69,149l0.4,0.2l-22.7,52c0.8,1.5,2.1,2.8,3.7,3.6l39.9,19.6c-1.3-1.9-1.4-4.6-1.4-6.7c-0.3-6.8-0.7-13.4-0.7-13.4l-13.3-44.4
	l-1-7.4C73.6,149.5,74.8,146.6,77.1,144.7 M83.8,141.2L83.8,141.2L83.8,141.2L83.8,141.2 M43.2,119.6c-4.8,0-11.8,1.5-11.8,10.3
	c0,1.9,0.3,3.8,0.8,5.7l3.6,14.4l0.6-0.2l11.9-6.5v-0.1l0.1,0.1h0.1l-1-1.6l13-14.3l-12.8-7.3C46.3,119.8,44.8,119.6,43.2,119.6"/>
<path class="st24" d="M211.3,206.5l2.2,18.6c0.1,1.1,1.7,5.3-1.7,5.6c-3.1,0.3-5.9-1.7-6.6-4.8l-4.3-19.1L211.3,206.5z"/>
<path class="st10" d="M100,224.7l107.5-11l-9.4-42.8c0,0-19.2-5.1-45,5.2c-4.3,1.7-9,2.2-13.6,1.2c-12.4-2.7-38-6.6-49.1,2.6
	L100,224.7"/>
<path class="st26" d="M197.7,206.7l-1.4-15.7l-0.6-50.4c0,0-2.8-16.6,15.5-16.1c0,0,10-1.7,5,27.2l-2.8,29.9l1.6,24
	c0.3,4.6-3.1,8.7-7.7,9.2l0,0C202.5,215.2,198.2,211.6,197.7,206.7"/>
<path class="st10" d="M195.4,168.6l0.7,2.6c0,0-16.6-6.6-36.2,4.8l-19,3.3c0,0-26.1-10-39.7-1.1l0.4-28.8l1.8-13.5l27.3,12l41,11.4
	l4.8,1.1L195.4,168.6"/>
<path class="st27" d="M195.7,169.7l0.2,0.7h0.2v-0.6L195.7,169.7"/>
<polyline class="st28" points="168.4,158.4 168.4,158.4 171.7,159.4 176.5,160.5 195.4,168.6 195.7,169.7 196,169.8 195.9,168.8 
	176.5,160.5 171.7,159.4 168.4,158.4 "/>
<path class="st27" d="M183.8,169.3c-2.6,0-5.2,0.2-7.8,0.7c2.1-0.2,4.2-0.3,6.1-0.3c1.2,0,2.3-0.1,3.4-0.1c1.6,0,3,0.1,4.3,0.1
	C187.8,169.4,185.8,169.3,183.8,169.3"/>
<path class="st27" d="M195.9,170.4l0.2,0.7v-0.4v-0.3L195.9,170.4 M185.5,169.6c-1.1,0-2.2,0-3.4,0.1h0.5c4.5-0.1,9.1,0.4,13.5,1.5
	l0,0c-2-0.7-4.2-1.2-6.3-1.5C188.5,169.6,187.1,169.6,185.5,169.6"/>
<path class="st29" d="M196.1,171.2L196.1,171.2 M196.1,170.7v0.4v0.1l0,0V170.7"/>
<path class="st27" d="M107.2,163.5l0.2,3.9c0.1-0.7,0.3-1.4,0.5-2.1L107.2,163.5 M168.4,158.4l-0.8,2c-0.5,1.5-1.1,2.9-1.9,4.2
	c2,1.9,3.1,4.4,0.4,7c3.3-0.8,6.6-1.4,10-1.8c2.6-0.4,5.2-0.7,7.8-0.7c2,0,4,0.1,5.9,0.4c2.2,0.3,4.3,0.8,6.3,1.5l0,0V171l-0.2-0.7
	l-0.2-0.7l-0.3-1.1l-18.9-8.1l-4.8-1.1L168.4,158.4"/>
<path class="st30" d="M179.8,195.6l-28.7,2.4l-40.3,3.8c-0.9,0.1-1.7,0.2-2.6,0.2c-1.3,0-2.6-0.2-3.9-0.8c0.2,1.7,0.4,3.3,0.6,5
	l2.3-0.4l74-7.2c0-0.5-0.1-1-0.3-1.4C180.6,196.7,180.2,196.1,179.8,195.6 M196.2,189.4c-0.9,4.3-12.5,5.9-15.2,6.2
	c0.4,0.3,0.7,0.6,1,1c0.4,0.6,0.7,1.2,0.8,1.9l13.7-1.3l-0.2-5.8V191v-0.8L196.2,189.4"/>
<polyline class="st31" points="196.3,190.2 196.3,191 196.3,191.3 196.3,190.2 "/>
<path class="st30" d="M116.1,174.6c-2.3,0-4.5,0.2-6.7,0.6c1.5,0.9,2.5,2.4,2.7,4.1l4.3,0.2l10.9,4.2c4.2,1.6,8.8,1.5,12.9-0.4
	l10.2-4.7c2.7-0.7,5-1.4,7-2.1l-6.5,1.1c-0.5,0.3-1,0.6-1.6,0.9l0,0c-3.1,1.2-6.5,1.8-9.8,1.7H139l-4.1,0.7
	c-5.5-3-11.4-5.1-17.6-6.3L116.1,174.6"/>
<path class="st30" d="M112.3,174.1c-1.4,0-2.8,0.1-4.1,0.4l0,0c0.4,0.1,0.8,0.3,1.2,0.6c2.2-0.4,4.5-0.6,6.7-0.6h1.1
	C115.6,174.3,114,174.1,112.3,174.1 M166.1,171.7c-5.3,1.3-10.4,3.3-15.2,5.9l6.5-1.1C161.9,174.8,164.6,173.2,166.1,171.7"/>
<path class="st32" d="M150.9,177.6l-3.3,0.6c0.6,0.1,1.2,0.2,1.7,0.3l0,0C149.9,178.1,150.4,177.9,150.9,177.6 M117.2,174.6
	c6.1,1.2,12.1,3.3,17.6,6.3l4.1-0.7c-5.4-0.1-10.6-1.8-15-5C121.7,174.9,119.5,174.7,117.2,174.6"/>
<path class="st32" d="M107.8,165.3c-0.2,0.7-0.4,1.4-0.5,2.1l0.1,1.1l0.1,0.2l0.7,5.8c1.4-0.3,2.7-0.4,4.1-0.4
	c1.6,0,3.3,0.1,4.9,0.4c2.2,0.1,4.5,0.2,6.7,0.6c-0.7-0.5-1.5-1.1-2.2-1.8l-11.1-0.7L107.8,165.3 M165.8,164.7
	c-4.8,8.4-14.3,11.9-19.2,13.2l1,0.2l3.3-0.6c4.8-2.5,9.9-4.5,15.2-5.8C168.8,169,167.8,166.6,165.8,164.7"/>
<path class="st3" d="M107.5,168.8l0.7,5.8c2.9,1,4.5,4,3.8,6.9c0,0,7.6,10,4.1,14.6c0,0-0.6,3.1-9,2.3l-7.4-1.4l-1-12.5l-1.5-15.7
	l8.4-4.2L107.5,168.8"/>
<path class="st10" d="M46.4,201c0.1,0.1,0.1,0.3,0.2,0.4l0,0C46.5,201.3,46.4,201.2,46.4,201 M44.8,186c0,0.3,0.1,0.6,0.1,1
	c0.4,3.4,0.3,8.2,0.8,11.7l0,0l-0.8-12L44.8,186 M42.4,176.6c0.2,1.1,0.3,2.1,0.5,3c0.3,1.6,0.8,3.1,1.4,4.6L42.4,176.6 M41.5,173
	L41.5,173c0,0,0,0.1,0,0.1V173"/>
<path class="st33" d="M44.8,185.9L44.8,185.9l0.2,0.6l0.8,12l0,0c0.1,0.8,0.3,1.6,0.6,2.4c0.1,0.1,0.1,0.3,0.2,0.4l0.1-0.2
	c-0.6-1-0.9-2.2-1-3.3l-0.8-11.3L44.8,185.9"/>
<path class="st34" d="M69,149l-12.6,6.6l0,0l-2.2-3.4l-5,2.7l-3.1,7.4c-0.2,3.3-1.3,5.1-2.6,6.1l-2,4.6v0.1c0.4,1.1,0.7,2.2,0.8,3.4
	l1.9,7.6c0.2,0.6,0.4,1.2,0.5,1.8l0.2,0.6l0.8,11.3c0.1,1.2,0.4,2.3,1,3.3l22.7-52L69,149"/>
<path class="st35" d="M97.6,97.6c0,0-6.9-6.2-14.4-5.7c0,0-14.2-0.2-9.7,17.9l10.4,26.4l11.6,36.8c0,0,2.9-6.4,12-3.7l-2.7-53.1
	L97.6,97.6"/>
<path class="st36" d="M84,136.3L84,136.3l1.2,3.9L84,136.3 M73.6,110.2c0.2,0.7,0.4,1.4,0.6,2l0.1-0.1L73.6,110.2 M76,94.6
	c-4,3.3-3.8,9-2.9,13.5C71.7,100.8,73.5,96.8,76,94.6"/>
<path class="st37" d="M94.2,129.2l-1.5,1l-8.7,6.1l1.2,3.9l0.3,0.8c3.2,0.2,6.1,1.6,8.3,3.9l4.7,24.4c1.1-0.3,2.1-0.6,3.2-0.9
	l-0.1-0.4l3.1-11.1L94.2,129.2 M83.2,91.9c-2.6,0.2-5.1,1.1-7.2,2.7c-2.5,2.2-4.3,6.2-2.9,13.5c0.2,0.7,0.3,1.4,0.5,2l0.7,1.9l5-5.5
	l0.4-0.5C75.7,95.8,83.2,91.9,83.2,91.9"/>
<path class="st38" d="M114.2,197.8c-1.4,0.5-2.9,0.7-4.4,0.7c-0.8,0-1.7-0.1-2.7-0.1l-2-0.4c1.6,0.6,3.3,0.9,5,0.9
	c1.2,0,2.4-0.2,3.6-0.6l0.9-0.3L114.2,197.8"/>
<path class="st39" d="M101.7,168.9l-0.9,0.2c-0.7,0.3-1.3,0.6-2,0.8l-0.2,0.1l5.1,26.6c0,0.3,0.1,0.6,0.1,1c0.4,0.2,0.8,0.4,1.3,0.5
	l2,0.4c1,0.1,1.9,0.1,2.7,0.1c1.5,0.1,3-0.2,4.4-0.7c-13.2-4.3-11.6-23.9-11.6-23.9L101.7,168.9"/>
<path class="st40" d="M98.8,169.8l-0.3,0.1v0.1L98.8,169.8 M101.7,168.6c-0.3,0.1-0.6,0.3-0.8,0.4l0.9-0.2L101.7,168.6"/>
<path class="st3" d="M54.6,152l-8.9,4.8c0,0,2.6,15.9-9.2,11.4L25,164.6l-22.9-3c0,0-1.5-6.3,5.2-5.5l3.3,1.9l25.9-8.1l16.3-8.9
	L54.6,152"/>
<path class="st41" d="M129,122.3l-22.7-24.6c0,0-12.2-10-27,8.9l-31.8,35.1l8.9,13.9c0,0,23.7-17.3,38.1-26.5l-0.4-0.9l21.4,37.1
	c0,0,10,18.1,28.1,13.3c0,0,19.2-3,24-18.1l1.9-5.1c0,0-8.7,6.8-20.8-10.8C148.7,144.6,138.7,133.9,129,122.3"/>
<g>
	<defs>
		<path id="SVGID_1_" d="M107.7,168.6l0.7,5.8c2.9,1,4.5,4,3.8,6.9c0,0,7.6,10,4.1,14.6c0,0-0.6,3.2-9,2.3l-7.4-1.4l-1-12.5
			l-1.5-15.7l8.4-4.2L107.7,168.6"/>
	</defs>
	<clipPath id="SVGID_2_">
		<use xlink:href="#SVGID_1_"  style="overflow:visible;"/>
	</clipPath>
	<g class="st42">
		<path class="st9" d="M110.3,171.9c0.5,1.1,0.1,2.4-1,2.9c-1.1,0.5-2.4,0.1-2.9-1c-0.5-1.1-0.1-2.4,1-2.9
			C108.4,170.3,109.7,170.7,110.3,171.9C110.3,171.8,110.3,171.9,110.3,171.9z"/>
		<path class="st9" d="M102.3,178.5c0.5,1.1,0.1,2.4-1,2.9c-1.1,0.5-2.4,0.1-2.9-1c-0.5-1.1-0.1-2.4,1-2.9
			C100.4,176.9,101.7,177.4,102.3,178.5C102.3,178.5,102.3,178.5,102.3,178.5z"/>
		<path class="st9" d="M111.4,183.8c0.5,1.1,0.1,2.4-1,2.9c-1.1,0.5-2.4,0.1-2.9-1c-0.5-1.1-0.1-2.4,1-2.9
			C109.6,182.2,110.9,182.7,111.4,183.8C111.4,183.8,111.4,183.8,111.4,183.8z"/>
		<path class="st9" d="M112.4,192.8c0.5,1.1,0.1,2.4-1,2.9s-2.4,0.1-2.9-1c-0.5-1.1-0.1-2.4,1-2.9
			C110.6,191.3,111.9,191.7,112.4,192.8C112.4,192.8,112.4,192.8,112.4,192.8z"/>
		<path class="st9" d="M100.3,190.5c0.5,1.1,0.1,2.4-1,2.9s-2.4,0.1-2.9-1c-0.5-1.1-0.1-2.4,1-2.9C98.4,189,99.7,189.4,100.3,190.5
			C100.2,190.5,100.2,190.5,100.3,190.5z"/>
	</g>
</g>
<path class="st26" d="M93.7,145c0,0-6.6-7.8-15.3-1.4c-3.2,2.3-5,5-4.6,9l1,7.4l13.3,44.3c0,0,0.4,6.6,0.7,13.4
	c0.1,3.2,0.3,8.1,5.1,9l2.7,0.2c5.7,0,8.7-3.7,8.9-9.4c0.2-5.9-0.7-13.3-1.9-20.9L93.7,145"/>
<path class="st43" d="M93.7,46.4h-0.3c-0.6,0.2-1.3,0.2-1.9,0.2h-0.1l0.6,0.3l-5.8,0.5l-7.7,2.1l11.5-1l-0.6-0.3h0.1
	c0.6,0,1.3-0.1,1.9-0.2h0.3l6.9,11.1l2,5.9c0.6,1.8,2.3,3,4.2,3.1c0.7,0,1.3-0.2,1.9-0.5c1.2-0.6,2.1-3.4,2.1-5.9l-0.1,0.1l0,0l0,0
	l-0.1,0.1c0,0,0,0.1,0,0.1h-0.2c-0.2,0.1-0.3,0.1-0.5,0.2c-0.4,0.1-0.7,0.1-1.1,0.2h-0.5l0,0c-1.7-0.2-3.2-1.4-3.7-3l-2-5.9
	L93.7,46.4 M120.3,45.2h-0.1c-0.5,0.6-1.1,1.2-1.7,1.7c1.1,0.6,2.4,0.9,3.7,1c1.3,0.1,2.5-0.6,3.1-1.7c-0.4,0.1-0.7,0.1-1.1,0.1
	C122.8,46.2,121.4,45.9,120.3,45.2"/>
<path class="st44" d="M86.2,47.4l-5.9,0.5l-4,0.4c0.3,0.4,0.5,0.8,0.7,1.3l1.3-0.2h0.1L86.2,47.4"/>
<path class="st43" d="M77.7,51.6c0.2,0.9,0,1.3-0.2,1.3l-2.3,0.2c0,0.1,0.1,0.1,0.1,0.2L75,53.3l-13.7,0.9c-1.9,0.6-3.6,1.5-5.1,2.7
	L70.9,55l0.3-0.1l4,1.6c0.2,0.1,0.5,0.2,0.8,0.2c0.8,0,1.5-0.4,1.8-1.1c0.6-1,0.8-2.1,0.6-3.2C78.2,52,78,51.8,77.7,51.6
	 M117.8,47.3c-1.5,0.9-3.2,1.4-5,1.4h-0.4c-1.1,0-2.2-0.2-3.3-0.6V48h-0.4h-0.1c-0.3,0-0.7-0.1-1-0.2c-0.5,0-1-0.1-1.4-0.4l1,2.1
	h0.1v0.1c1.1,0.4,2.4,0.6,3.6,0.6C113.4,50.3,116,49.3,117.8,47.3"/>
<path class="st15" d="M47.9,53c-2.4,0.3-4.7,0.6-6.6,2.1c0.9-0.4,1.8-0.7,2.7-1L47.9,53"/>
<path class="st45" d="M54.8,50.9l-0.6,0.3l0.6-0.2L54.8,50.9"/>
<path class="st46" d="M50.6,52.6h-0.3c-0.8,0.1-1.6,0.2-2.4,0.3L44,54c-0.9,0.3-1.8,0.6-2.7,1l0,0l0.1,0.1c0.3-0.1,0.6-0.2,0.9-0.3
	L50.6,52.6 M54.9,51.3c-0.6,0.2-1.1,0.3-1.6,0.4s-0.7,0.3-1.1,0.4l2.7-0.7L54.9,51.3"/>
<path class="st47" d="M54.8,51.1l-0.6,0.2c-0.3,0.2-0.6,0.3-0.9,0.5c0.5-0.1,1-0.3,1.6-0.4C54.8,51.3,54.8,51.2,54.8,51.1"/>
<path class="st44" d="M54.9,51.5l-2.7,0.7c-0.5,0.2-1,0.3-1.6,0.4l-8.4,2.2c-0.3,0.1-0.6,0.2-0.9,0.3v0.1c0,0,0,0.7,1.7,0.7
	c2.2-0.2,4.4-0.7,6.4-1.5l0.2,0.2c0.1,1.4,1.2,2.6,2.6,2.8h0.1l3.7-0.5c1.5-1.2,3.2-2.2,5.1-2.7l-3.7,0.3h-0.1
	c-1.4-0.2-2.5-1.3-2.6-2.8L54.9,51.5"/>
<path class="st48" d="M106.1,47.5c1,0.6,2.5,0.6,4.6-0.7c-3.3-0.4-14.6-7.6-16.5-0.4h-0.5l7,7l2,5.9c0.8,2.3,3.3,3.6,5.6,2.8
	c0.2-0.1,0.4-0.1,0.6-0.2c1.4-0.7,2.4-2.2,2.1-5L106.1,47.5"/>
<path class="st48" d="M125.5,37.3l-2-9c0,0,0-12.9-15.9-13.6l-13.1,2.9l-7.4-1.1c0,0-27.4-5.4-33.5,13.5l-0.6,10
	c-0.7,6,3.5,10.2,9.5,9.9h0.6l21.6-2.4l9.9-1.1c0.4-3.3,3.3-3,6.5-2.3c3.1,0.6,6.1,1.7,8.9,3.2c1-0.5,1.9-1.2,2.8-1.9
	c0,0,12.2,0.3,15.1-2.2c1-2.2,0-4.8-2.2-5.7C125.6,37.4,125.6,37.3,125.5,37.3"/>
<path class="st2" d="M79.1,17.7l7.4,1.1l6.2-1.4l-5.8-0.9c0,0-9.7-1.9-18.8,0.5C71.8,16.8,75.5,17,79.1,17.7"/>
<path class="st2" d="M125.3,37.3l-2-9c0,0,0-12.2-14.7-13.5c-0.8-0.1-1.5,0.1-2.2,0.4c10.3,2.2,9.1,14.2,9.1,14.2l2,9
	c2.2,0.9,3.3,3.4,2.4,5.6c0,0.1-0.1,0.1-0.1,0.2c-0.5,0.4-1.2,0.7-1.8,0.9c3.6-0.2,8-0.7,9.6-2.1c1-2.2,0-4.8-2.2-5.7
	C125.4,37.3,125.4,37.3,125.3,37.3"/>
<path class="st2" d="M85,35.5c-4.7-2.9-10.6-2.8-15.8-2.8h-0.6h-0.2c-4.9-0.3-9.6-1.8-13.7-4.4c-2.7,7.7-0.9,16.2-0.9,16.2
	c0.7,7.1,12,4.7,12,4.7L92,47l-0.6-0.3c1.6,0,2.5-0.2,2.2-0.5C89.5,41.7,88.4,37.6,85,35.5"/>
<path class="st9" d="M125.5,37.3c-3.8-0.5-6.8-3.6-7.2-7.4c-0.2-1.1-0.8-2.2-1.7-2.9c-1.2-0.9-2.5-0.9-1.8,4.8c0,0-0.8,5.7-4.8,7.1
	c0,0-8.4,0.9-4.5,7.6c0,0,3.2,4.5,7.2-1.1c0,0,6.6,0.7,11.6-0.8C124.3,44.5,132.9,43,125.5,37.3"/>
<path class="st48" d="M72,23.6c0,0,10.8,10-3.7,23.3l5.9,0.4c1.4,0.1,2.2,0.4,3.1,2.9c0.7,1.9,0.5,2.7,0.1,2.7L58,54.4
	c-1.6,0-2.8-1.2-3-2.7C53.4,43,45.4,17.5,72,23.6"/>
<path class="st5" d="M151.8,125.9c3.5-0.9,1-5.7,2.9-11.3l-11.5-7l-6.4,2.3l0.2,5.5L151.8,125.9"/>
<path class="st41" d="M191.1,217.3c0,2.9-5.1,5.2-11.3,5.2s-11.3-2.3-11.3-5.2s5.1-5.2,11.3-5.2S191.1,214.4,191.1,217.3"/>
<path class="st2" d="M169.4,222.3h-3.7c-1.6,0.3-2.6,1.9-2.3,3.4c0,0,0.1,2.5,3.2,2.5l4.7,0.1l-1.5,2.5h-3.6c0,0-5.2-0.7-5-5.2
	c0,0-0.9-3.9,4-5.2l5-1L169.4,222.3z"/>
<path class="st41" d="M191,217.6c-0.1,2.3-0.2,4.7-0.4,7c-0.2,4,0,7.9-2.5,11c-3,3.6-8.3,3.6-12.3,2.5c-3.8-1-6.3-4.2-6.6-8.7
	l-0.7-12.3l15.7-1.2L191,217.6"/>
<path class="st49" d="M188.9,216.6c0,1.4-4.1,2.6-9.3,2.6s-9.3-1.2-9.3-2.6s4.1-2.6,9.3-2.6S188.9,215.2,188.9,216.6"/>
<path class="st50" d="M179.5,214.1c-5.1,0-9.3,1.1-9.3,2.6c0,0.2,0.1,0.3,0.1,0.4h0.1c-0.1-0.1-0.1-0.3-0.1-0.4
	C170.4,215.2,174.5,214.1,179.5,214.1L179.5,214.1"/>
<path class="st50" d="M170.5,217.1h-0.1c0.7,1.1,3.9,2,7.9,2.1l0,0C174.3,219,171.2,218.2,170.5,217.1"/>
<path class="st51" d="M179.6,214.1c-5.1,0-9.2,1.2-9.2,2.6c0,0.2,0,0.3,0.1,0.4c0.7,1.1,3.8,1.9,7.7,2.1c-2.7-0.4-4.6-1.3-4.6-2.2
	c0-1.4,4.1-2.6,9.3-2.6h1.2C182.6,214.2,181.1,214,179.6,214.1"/>
<path class="st9" d="M107.3,36.7c0-1,0.6-1.8,1.5-2.1c1.7-0.6,3.4-0.3,3.6,1.2s-0.4,2-2.9,2S107.3,36.7,107.3,36.7z"/>
<path class="st8" d="M110.8,35.8c0,0,1.2,0.5,0.9,1.6c-0.2,0.8-1.1,1.2-1.8,1c-0.3-0.1-0.5-0.2-0.7-0.4c-0.5-0.9-0.3-1.5,0.1-1.9
	C109.8,35.8,110.3,35.7,110.8,35.8z"/>
<path class="st7" d="M124.7,33.3c-0.1-0.3-0.1-0.6-0.2-0.9c-0.7,0-1.4,0.1-2,0.3c-0.9,0.2-1.6,1-1.6,2c0,0-0.4,1,2.1,1
	c0.7,0,1.3-0.1,2-0.3C125,34.7,124.9,34,124.7,33.3z"/>
<path class="st8" d="M123.2,33.9c0.7,0,1.2,0.6,1.2,1.3c0,0.1,0,0.1,0,0.2c-0.3,1-2,1.4-2.5,0.6c-0.4-0.5-0.4-1.3,0.1-1.7
	c0,0,0,0,0,0C122.4,34,122.8,33.9,123.2,33.9z"/>
<path class="st9" d="M109.2,48.1c3.9,1.4,8.3,0.3,11-2.9c0,0,6.1,3.6,7.6-2.1V41l-1.6,1.2l-8.1,3l-7.9-1.5L109.2,48.1"/>
<path class="st52" d="M110.5,46.8l-2.1-1c-1.4-0.6-2.3-1.9-2.5-3.4c-0.1-0.8,0.1-1.7,0.6-2.4c-1.7,1-3,3-1,6.4c0,0,1.5,2.1,3.7,1.7
	v0.1c3.8,1.4,8,0.4,10.8-2.6C117.1,47.4,113.6,47.9,110.5,46.8"/>
<path class="st52" d="M121.6,43.9h-0.2c-0.4,0.5-0.9,0.9-1.3,1.3h0.1c0.7,0.4,5.1,2.5,7-0.6C125.1,45.7,122.1,44.2,121.6,43.9"/>
<path class="st52" d="M119.8,45.5l0.3-0.2H120L119.8,45.5z"/>
<path class="st2" d="M114.3,39.3l8.9-1.3c0.5-0.1,1,0.2,1.1,0.7c0.4,1.1,0.5,3.2-3.3,5.7c-0.2,0.1-0.5,0.2-0.8,0.1
	c-2.5-0.5-4.7-1.8-6.5-3.5c-0.4-0.4-0.4-1-0.1-1.4C113.9,39.4,114.1,39.3,114.3,39.3"/>
<path class="st53" d="M115.3,39.1l-1,0.1c-0.6,0-1,0.5-0.9,1.1c0,0.2,0.1,0.5,0.3,0.7l0.2,0.2l-0.1-0.1c-0.4-0.4-0.4-1-0.1-1.4
	c0.2-0.2,0.4-0.3,0.6-0.3L115.3,39.1L115.3,39.1"/>
<path class="st54" d="M115.3,39.1l-1,0.1c-0.6,0-1,0.5-0.9,1.1c0,0.2,0.1,0.5,0.3,0.6l0.1,0.1c1.8,1.7,4,2.8,6.3,3.4h0.2
	c0.2,0,0.4-0.1,0.6-0.2c1.3-0.7,2.4-1.9,3.2-3.2c-0.5,0.5-1.1,0.9-1.7,1.3c-0.2,0.1-0.4,0.2-0.6,0.2c-0.1,0-0.1,0-0.2,0
	C119.3,42,117.1,40.9,115.3,39.1"/>
<path class="st48" d="M104.6,23c0,0-6.8-26.4-15.7-11.9c0,0-8.8,10.4,8.1,14.1L104.6,23"/>
<path class="st3" d="M102.6,22.3c0,0-6.7-19.3-11.1-9.6c0,0-5.6,8.2,6.1,11L102.6,22.3z"/>
<polygon class="st23" points="157,114 173.2,125.3 181.1,139.1 178.4,128.4 186,133.6 178.7,120.7 179.7,100 174,121.1 "/>
<path class="st55" d="M106.5,149.7L106.5,149.7l0.2,0.3l-0.1,0.4l0.7,13.1l0.7,1.8c0.7-2.4,2.1-4.4,4.7-5.1L106.5,149.7"/>
<path class="st56" d="M149.3,178.4l-10.4,1.7h0.6C142.9,180.2,146.2,179.6,149.3,178.4"/>
<path class="st57" d="M124,175.1c4.4,3.2,9.6,4.9,15,5l10.4-1.7l0,0c-0.6-0.1-1.2-0.2-1.7-0.3l-6.8,1.2l-0.3-0.1c-1,0.1-2,0.2-3,0.2
	c-4.6,0-9.1-1.5-12.9-4.2L124,175.1"/>
<path class="st57" d="M146.6,177.9c-1,0.3-2,0.5-3,0.7c-1,0.3-2,0.5-3.1,0.6l0.3,0.1l6.8-1.2L146.6,177.9 M112.6,160.2
	c-2.6,0.7-4,2.6-4.7,5.1l2.8,7.3l11.1,0.7c0.7,0.6,1.5,1.2,2.2,1.8l0.7,0.1c-3.7-2.6-6.9-6-9.2-9.9L112.6,160.2"/>
<path class="st37" d="M106.5,150.4l-1.8,6.5l2.5,6.6L106.5,150.4 M94.1,128.2l0.4,0.9l-0.3,0.2l12.3,20.5v-0.1L94.1,128.2"/>
<polyline class="st58" points="106.5,149.7 106.5,150.4 106.6,150 106.5,149.7 "/>
<path class="st59" d="M94.2,129.2L94.2,129.2l10.5,27.7l1.8-6.5v-0.7L94.2,129.2"/>
<path class="st36" d="M83.8,136.2l-3.2,2.2l0.2,0.1l3.1-2.1L83.8,136.2"/>
<path class="st60" d="M83.9,136.1L83.9,136.1l0,0.3l0.1-0.1l0,0L83.9,136.1"/>
<path class="st59" d="M92.7,130.2c-2.7,1.8-5.7,3.8-8.8,5.9l0.1,0.2l0,0L92.7,130.2"/>
<path class="st61" d="M76.8,141.1c-3.5,2.5-6.9,4.9-9.9,7h0.1L76.8,141.1"/>
<path class="st62" d="M66.9,148c-6.1,4.4-10.4,7.5-10.4,7.5L66.9,148L66.9,148"/>
<path class="st63" d="M56.4,155.6L56.4,155.6 M94.1,115.5l-5.8,10.2l-31.9,30c0,0,4.3-3.2,10.4-7.5c3-2.1,6.4-4.5,9.9-7l3.7-2.7l0,0
	l3.2-2.2l0.1-0.1c3.1-2.1,6.1-4.1,8.8-5.9l1.5-1v0.1l0,0l0.3-0.2l-0.4-0.9l12.4,21.4l6.1,10.5l2.9,5.1c2.4,3.9,5.5,7.3,9.2,9.9
	c3.8,2.7,8.2,4.1,12.9,4.2c1,0,2-0.1,3-0.2c1-0.1,2.1-0.4,3.1-0.6c1-0.2,2-0.4,3-0.7c-21.2-5.5-46.4-46.7-46.4-46.7l4.1-7.1l-10.1,4
	V115.5"/>
<g>
	<defs>
		<path id="SVGID_3_" d="M54.6,152l-8.9,4.8c0,0,2.6,15.9-9.2,11.4L25,164.6l-22.9-3c0,0-1.5-6.3,5.2-5.5l3.3,1.9l25.9-8.1l16.3-8.9
			L54.6,152"/>
	</defs>
	<clipPath id="SVGID_4_">
		<use xlink:href="#SVGID_3_"  style="overflow:visible;"/>
	</clipPath>
	<g class="st64">
		<path class="st9" d="M51.7,154.7c-0.6,1-1.9,1.4-3,0.8c-1-0.6-1.4-1.9-0.8-3c0.6-1,1.9-1.4,3-0.8
			C51.9,152.4,52.3,153.7,51.7,154.7"/>
		<path class="st9" d="M41.7,151.7c-0.6,1.1-2,1.4-3,0.8s-1.4-2-0.8-3c0.6-1.1,2-1.4,3-0.8c0,0,0,0,0,0
			C42,149.3,42.3,150.6,41.7,151.7C41.7,151.7,41.7,151.7,41.7,151.7z"/>
		<path class="st9" d="M42.3,162.2c-0.6,1-1.9,1.4-3,0.8c-1-0.6-1.4-1.9-0.8-3c0.6-1,1.9-1.4,3-0.8
			C42.6,159.8,42.9,161.2,42.3,162.2C42.3,162.2,42.3,162.2,42.3,162.2"/>
		<path class="st9" d="M35.3,168c-0.6,1.1-1.9,1.4-3,0.8c-1.1-0.6-1.4-1.9-0.8-3c0.6-1.1,1.9-1.4,3-0.8c0,0,0,0,0,0
			C35.6,165.6,35.9,167,35.3,168C35.3,168,35.3,168,35.3,168"/>
		<path class="st9" d="M30.6,156.6c-0.6,1.1-1.9,1.4-3,0.8c-1.1-0.6-1.4-1.9-0.8-3c0.6-1.1,1.9-1.4,3-0.8c0,0,0,0,0,0
			C30.8,154.2,31.1,155.5,30.6,156.6z"/>
		<path class="st9" d="M24.6,164.8c-0.6,1.1-1.9,1.4-3,0.8c-1.1-0.6-1.4-1.9-0.8-3c0.6-1.1,1.9-1.4,3-0.8c0,0,0,0,0,0
			C24.8,162.4,25.2,163.8,24.6,164.8"/>
		<path class="st9" d="M16.9,160.8c-0.6,1.1-1.9,1.4-3,0.8c-1.1-0.6-1.4-1.9-0.8-3c0.6-1.1,1.9-1.4,3-0.8c0,0,0,0,0,0
			C17.2,158.4,17.5,159.7,16.9,160.8C16.9,160.8,16.9,160.8,16.9,160.8"/>
		<path class="st9" d="M6.9,162.9c-0.6,1-1.9,1.4-3,0.8s-1.4-1.9-0.8-3c0.6-1,1.9-1.4,3-0.8C7.2,160.6,7.5,161.9,6.9,162.9"/>
	</g>
</g>
<polyline class="st65" points="48.4,143.1 48.4,143.3 48.4,143.2 48.4,143.1 "/>
<path class="st66" d="M48.4,143.2L48.4,143.2l1.4,8.2c1.1,0,2,0.8,2.2,1.9l2.3-1.2l-4.7-7.2L48.4,143.2"/>
<polyline class="st67" points="49.6,144.9 54.2,152.2 54.6,152 49.6,144.9 "/>
<path class="st3" d="M49.8,151.5l0.5,2.8l1.7-0.9C51.8,152.3,50.9,151.5,49.8,151.5"/>
<path class="st3" d="M25,164.6l13.9,4.7c0.4,0.1,0.9,0.1,1.3,0.1h0.5l-0.1-0.4h-0.4c-1.3,0-2.5-0.3-3.7-0.8L25,164.6"/>
<path class="st65" d="M43.9,167.5c-0.9,0.9-2,1.5-3.3,1.5l0.1,0.4c1-0.1,2-0.4,2.8-1L43.9,167.5 M45.7,156.8L45.7,156.8
	c0.3,2.1,0.3,4.3,0,6.4l0.4-0.9C46.1,160.4,46,158.6,45.7,156.8"/>
<path class="st68" d="M46.1,162.3l-0.4,0.9c-0.2,1.6-0.8,3.1-1.8,4.3l-0.4,0.8C44.8,167.4,45.9,165.6,46.1,162.3"/>
<path class="st66" d="M7.2,161.9c0,0.1,0,0.3,0,0.4l13.3,1.7c-0.1-0.5,0-0.9,0.3-1.3l0.1-0.1L7.2,161.9 M2.1,161.6l0.8,0.1v-0.1
	L2.1,161.6 M45.7,156.8c0,0-2.1,8.7-8.5,8.7c-0.9,0-1.8-0.2-2.7-0.5l0,0c1,0.6,1.4,1.8,0.9,2.9l-4.1-1.3c0.1-0.9,0.9-1.7,1.8-1.9
	l-8.4-1.7c0.2,0.5,0.2,1,0,1.4H25l11.5,3.7c1.2,0.5,2.4,0.8,3.7,0.8h0.4l0,0c1.3,0,2.4-0.6,3.3-1.5c1-1.2,1.7-2.7,1.8-4.3
	C46,161,46,158.9,45.7,156.8L45.7,156.8"/>
<path class="st3" d="M33.1,164.8c-1,0.1-1.7,0.9-1.9,1.8l4.2,1.3c0.5-1,0.1-2.3-0.9-2.9l0,0L33.1,164.8"/>
<path class="st3" d="M20.8,162.5l-0.1,0.1c-0.2,0.4-0.3,0.9-0.3,1.3l4.2,0.5c0.2-0.5,0.2-1,0-1.4l-2.2-0.4L20.8,162.5"/>
<path class="st3" d="M2.8,161.6L2.8,161.6l4.3,0.6c0-0.1,0-0.3,0-0.4L2.8,161.6"/>
<polyline class="st69" points="80.8,138.5 80.5,138.7 83.8,140.5 83.8,141.2 84.5,140.8 80.8,138.5 "/>
<path class="st34" d="M80.5,138.7l-13.5,9.4L69,149l8.1-4.2c0.4-0.4,0.9-0.8,1.4-1.1c1.5-1.2,3.4-2,5.3-2.4h0.1v-0.7L80.5,138.7"/>
<polyline class="st70" points="67.1,148.1 56.4,155.6 69,149 67.1,148.1 "/>
<path class="st71" d="M83.7,141.2c-1.9,0.4-3.7,1.2-5.3,2.4c-0.5,0.4-1,0.7-1.4,1.1L83.7,141.2"/>
<path class="st72" d="M80.5,138.4l-0.2,0.2l0.2,0.1l0.2-0.2L80.5,138.4"/>
<path class="st62" d="M80.3,138.6l-3.6,2.5l-9.8,7l0.1,0.1l13.5-9.4L80.3,138.6"/>
<polyline class="st73" points="66.9,148.1 56.4,155.6 56.4,155.6 67.1,148.1 66.9,148.1 "/>
<path class="st74" d="M56.4,155.6L56.4,155.6 M80.5,138.4l-3.7,2.7l3.6-2.5l0,0L80.5,138.4L80.5,138.4"/>
<path class="st26" d="M169.9,57.4c0.9,0.4,2,0.6,3,0.5c3-0.4,5.5-2.5,6.2-5.4c-0.1-0.2,0.9,2.5-2.6,5.4
	C172.4,60.4,169.6,57.3,169.9,57.4z"/>
<path class="st5" d="M182.5,72c-0.2-4.4-0.6-8.1-0.6-8.1c-4.4,2.3-9.3,3.3-14.2,2.7l0.8,3.8c0.3,1.6,1.2,2.9,2.5,3.8
	C173.7,76.2,177.9,77.2,182.5,72z"/>
<path class="st23" d="M163,68.2c0.3,2.4,1.1,4.7,2.4,6.8c1.1,1.7,2.7,3.1,4.5,3.9c1.8,0.8,3.8,1.1,5.8,1.1c0.4,0,0.7,0,1.1,0
	c4.4-0.2,8.4-3.3,10.5-7l-0.9-0.5c-2,3.4-5.7,6.3-9.6,6.5h-1c-1.8,0-3.6-0.3-5.3-1c-1.7-0.7-3.1-2-4.1-3.5c-1.2-1.9-2-4.1-2.2-6.4
	L163,68.2L163,68.2z"/>
<path class="st75" d="M118.9,71c-0.2-1.2-0.3-2.4-0.5-3.6c-0.1-0.5,0.1-0.7,0.6-0.8s1.3-0.2,1.9-0.3c0.4-0.1,0.6,0.1,0.7,0.5
	c0.3,2.4,0.7,4.8,1,7.2c0.2,0.9-0.3,1.7-1.2,2c-0.1,0-0.1,0-0.2,0c-0.9,0.1-1.7-0.5-1.8-1.4c0,0,0-0.1,0-0.1L118.9,71z"/>
<path class="st75" d="M113.5,81.3c0.1,0.8-0.4,1.7-1.3,1.8c-0.3,0.1-0.6,0-0.9-0.1c-1.8-0.7-3.5-1.4-5.2-2.1
	c-0.5-0.2-1.1-0.4-1.6-0.7s-0.5-0.4-0.4-0.8c0.3-0.7,0.5-1.3,0.8-1.9c0.1-0.2,0.3-0.4,0.5-0.3c0.1,0,0.1,0,0.1,0.1
	c2.4,1,4.7,1.9,7,2.9C113.1,80.3,113.4,80.8,113.5,81.3z"/>
<path class="st75" d="M130,79.1c-0.1-0.6,0.1-1.2,0.6-1.6c1.9-1.5,3.9-3,5.8-4.5c0.3-0.3,0.6-0.3,0.9,0.1c0.4,0.5,0.8,1.1,1.2,1.6
	c0.2,0.2,0.2,0.5,0.1,0.7c0,0-0.1,0.1-0.2,0.1c-2,1.5-3.9,3.1-5.9,4.6c-0.7,0.5-1.6,0.4-2.2-0.2C130.2,79.7,130.1,79.4,130,79.1z"/>
<path class="st75" d="M117.1,76.6c0.1,0.7-0.3,1.4-1,1.7c-0.7,0.3-1.4,0.1-1.9-0.5c-0.8-1-1.6-2-2.4-3s-1.4-1.8-2.1-2.7
	c-0.3-0.4-0.4-0.7,0.1-1s1-0.8,1.5-1.2c0.2-0.2,0.5-0.2,0.7,0c0,0,0.1,0.1,0.1,0.1c1.5,2,3,3.9,4.5,5.8
	C116.9,76.1,117,76.3,117.1,76.6z"/>
<path class="st75" d="M127.2,76.8c-0.9,0.2-1.7-0.3-1.9-1.2c-0.1-0.3,0-0.7,0.1-1c0.7-1.7,1.4-3.3,2-5c0.2-0.6,0.5-1.2,0.7-1.8
	c0.1-0.4,0.4-0.5,0.8-0.3l1.9,0.8c0.4,0.1,0.4,0.4,0.3,0.7c-0.9,2.3-1.9,4.6-2.8,6.9C128.1,76.3,127.7,76.7,127.2,76.8z"/>
<path class="st76" d="M109,58.8L109,58.8c0.4,0.6,0.7,1.3,0.7,2.1h0.5c0-0.9-0.3-1.7-0.8-2.4L109,58.8"/>
<path class="st76" d="M107.5,59.9L107.5,59.9c0.4,0.6,0.6,1.3,0.7,2h0.5c0-0.9-0.3-1.7-0.8-2.4L107.5,59.9"/>
<path class="st76" d="M105.7,60.2L105.7,60.2c0.4,0.6,0.6,1.3,0.7,2.1h0.5c0-0.8-0.3-1.7-0.7-2.4L105.7,60.2"/>
<path class="st35" d="M175.8,231l-0.8-10.6c-3.2-0.6-5.6-1.8-6.3-3.2h-0.2l0.7,12.3c0.2,4.5,2.8,7.6,6.6,8.7
	c1.9,0.5,3.8,0.7,5.8,0.6C178.3,237.5,176.1,234.5,175.8,231z"/>
<path class="st77" d="M53.1,31.2c-1,3.1-0.8,6.8-0.2,10.5c0-0.3,0-0.7,0-1C52.5,37.5,52.5,34.3,53.1,31.2 M56,25
	c-2.4,2.9-3,4.2-2.4,4.4c0.3-0.8,0.7-1.6,1.1-2.3C55.1,26.4,55.6,25.7,56,25 M73.3,16c-10,0.8-14.3,5.2-15.6,6.9
	c2.9-2.9,6.6-5,10.6-5.9h-0.2C69.8,16.5,71.5,16.2,73.3,16"/>
<path class="st78" d="M53.4,44.4c0.4,2.2,0.9,4.3,1.3,6l0,0c-0.3-1.5-0.7-3.4-1.1-5.5C53.5,44.8,53.4,44.6,53.4,44.4"/>
<path class="st79" d="M54.7,50.4L54.7,50.4c0,0.2,0.1,0.3,0.1,0.5l0,0C54.8,50.8,54.7,50.6,54.7,50.4"/>
<path class="st80" d="M110,60.9L110,60.9c-0.3,0.3-0.6,0.6-1,0.8l0,0C109.3,61.5,109.7,61.2,110,60.9 M110.9,56.8L110.9,56.8
	c0.2,1.3,0,2.6-0.7,3.7l0,0C110.9,59.4,111.1,58.1,110.9,56.8L110.9,56.8"/>
<path class="st81" d="M75.1,53.2l-13.6,1h-0.1L75.1,53.2l0.1,0.1C75.2,53.2,75.1,53.2,75.1,53.2 M93.8,46.4L93.8,46.4l6.9,6.9
	L93.8,46.4 M94.2,46.4L94.2,46.4"/>
<path class="st82" d="M54.8,50.9L54.8,50.9v0.2l0,0V50.9"/>
<path class="st83" d="M54.9,51.3L54.9,51.3v0.1l0,0V51.3"/>
<path class="st84" d="M54.8,51.1L54.8,51.1c0,0.1,0,0.2,0,0.2l0,0C54.8,51.3,54.8,51.2,54.8,51.1"/>
<path class="st85" d="M54.9,51.5L54.9,51.5v0.2c0.1,1.4,1.2,2.6,2.6,2.8h0.1l3.7-0.3h0.1L58,54.4h-0.2c-1.5-0.1-2.7-1.3-2.8-2.8
	C54.9,51.6,54.9,51.6,54.9,51.5"/>
<path class="st81" d="M108.5,62L108.5,62c-0.2,0.1-0.3,0.1-0.5,0.2C108.1,62.1,108.3,62,108.5,62 M108.8,61.8l-0.1,0.1l0,0
	L108.8,61.8 M109,61.7l-0.1,0.1L109,61.7L109,61.7"/>
<path class="st86" d="M97.9,43.6c-1.7,0-3,0.6-3.3,2.8h-0.4l0,0h-0.4l6.9,6.9l2,5.9c0.6,1.6,2,2.8,3.7,3c0-0.7-0.3-1.4-0.7-2l0,0
	l0.5-0.3c0.5,0.7,0.8,1.5,0.8,2.4c0.4,0,0.8-0.1,1.1-0.2c0.2,0,0.3-0.1,0.5-0.2h-0.3c0-0.7-0.3-1.4-0.7-2l0,0l0.4-0.3
	c0.5,0.7,0.7,1.5,0.8,2.3l0.1-0.1l0,0l0,0l0.1-0.1c0.4-0.2,0.7-0.5,1-0.8h-0.2c0-0.7-0.3-1.4-0.7-2.1l0,0l0.4-0.3
	c0.4,0.6,0.7,1.3,0.8,2.1c0.7-1.1,0.9-2.4,0.7-3.7l0,0l-4.7-9.1c-0.9-0.7-1.4-1.7-1.5-2.8c-1.2-0.4-2.5-0.7-3.6-1
	C100.1,43.8,99,43.7,97.9,43.6"/>
<path class="st86" d="M52.9,40.6c0,0.3,0,0.7,0,1c0.1,1,0.3,1.9,0.5,2.8c0.1,0.2,0.1,0.3,0.2,0.5C53.3,43.6,53.1,42.1,52.9,40.6
	 M70.6,16.9c-0.7,0-1.5,0-2.3,0c-4,0.9-7.7,3-10.6,6c-0.2,0.2-0.3,0.5-0.5,0.7c-0.4,0.5-0.8,0.9-1.2,1.4c-0.5,0.7-0.9,1.4-1.3,2.1
	c1.8-2.7,4.9-4.5,10-4.5c2.5,0,4.9,0.3,7.3,0.9c2.3,2.3,3.6,5.4,3.8,8.7c0.1,0.3,0.2,0.5,0.2,0.6c3.1,0.1,6.2,1,8.9,2.6
	c3.4,2.2,4.5,6.2,8.7,10.7l0,0l0.2,0.2h-0.2l0.1,0.1l0,0h0.4l0,0h0.4c0.2-2.1,1.5-2.8,3.3-2.8c1.1,0,2.2,0.2,3.2,0.4
	c1.1,0.2,2.3,0.6,3.6,1c0-0.1,0-0.2,0-0.3s-0.1-0.4-0.1-0.5c-1.3-0.6-2.5-1.6-3.4-2.7c-0.3-0.5-0.6-1-0.9-1.5l-0.6-0.4
	c-6.8-3-5.8-14.3-5.8-14.3c-1.2-0.8-2.4-1.7-3.4-2.7c-1.6-0.8-2.9-2.3-3.5-4l-0.3,0.1l-7.4-1.2C76.3,17.2,73.4,16.9,70.6,16.9"/>
<path class="st2" d="M76.8,15.9c-1.2,0-2.4,0-3.5,0.1c-1.7,0.2-3.5,0.5-5.2,1h0.2c0.8,0,1.5,0,2.3,0c2.9,0,5.7,0.2,8.6,0.7l7.4,1.1
	l0.3-0.1c0-0.1-0.1-0.2-0.1-0.2c-0.4-0.6-0.7-1.2-1.1-1.8C82.7,16.2,79.7,16,76.8,15.9"/>
<path class="st2" d="M93.6,46.3L93.6,46.3 M76.1,32.9L76.1,32.9l17.6,13.3l0,0c-4.1-4.5-5.2-8.6-8.7-10.7
	C82.3,34,79.2,33.1,76.1,32.9"/>
<path class="st86" d="M64.7,22.7c-5.1,0-8.2,1.8-10,4.5c-0.5,0.7-0.8,1.5-1.1,2.3c0.1,0,0.1,0,0.2,0c-0.3,0.6-0.5,1.1-0.7,1.7
	c-0.6,3.1-0.6,6.3-0.2,9.5c0.2,1.5,0.4,2.9,0.7,4.3c0.4,2,0.8,3.9,1.1,5.5c0,0.2,0.1,0.3,0.1,0.5v0.2c0,0.1,0,0.2,0,0.2l0,0v0.1
	c0,0.1,0,0.1,0,0.2c0.2,1.5,1.4,2.6,2.8,2.8h0.2l3.5-0.2l13.6-1c-0.1-0.2-0.2-0.6-0.4-1.2c-0.8-2.6-1.5-2.8-2.8-3l-4.9-1.8
	C74.5,31.2,68,24.9,68,24.9c-1.1-0.3-2.1-0.6-3.2-0.7c0.4,0,0.7-0.1,1.1-0.1c6.1,0,9.1,6.1,10,8.1c-0.2-3.3-1.5-6.3-3.8-8.7
	C69.6,23,67.2,22.7,64.7,22.7"/>
<path class="st87" d="M104.5,44.2c0,0.2,0.1,0.3,0.1,0.5c0-0.2,0-0.3,0-0.5L104.5,44.2"/>
<path class="st86" d="M86.8,18.5c0,0.1,0,0.2,0.1,0.2c0.6,1.7,1.9,3.2,3.5,4C89,21.4,87.8,20,86.8,18.5"/>
<path class="st88" d="M109.4,58.5l-0.4,0.3l0,0c0.4,0.6,0.7,1.3,0.7,2.1h0.2c0.1-0.1,0.2-0.2,0.2-0.3l0,0
	C110.1,59.8,109.8,59.1,109.4,58.5"/>
<path class="st88" d="M107.9,59.6l-0.4,0.3l0,0c0.4,0.6,0.6,1.3,0.7,2h0.3l0.2-0.1l0,0C108.6,61,108.3,60.2,107.9,59.6"/>
<path class="st88" d="M106.1,59.9l-0.4,0.3l0,0c0.4,0.6,0.6,1.3,0.7,2h0.5l0,0C106.8,61.4,106.6,60.6,106.1,59.9"/>
<path class="st89" d="M182.8,198.5l-1.5,0.1c0,0.7-0.3,1.4-0.6,2.1c-0.7,1.3-1.3,2.6-1.8,4.1c-0.2,0.8-0.2,1.6,0,2.4
	c0.2,0.8,0.6,1.5,1.2,2c-0.6-1.3-0.6-2.7,0-4c0.5-1.2,1.4-2.4,2-3.8c0.4-0.7,0.6-1.5,0.7-2.4C182.8,198.8,182.8,198.6,182.8,198.5
	 M178.2,194.1c0.5,0.5,1.1,1,1.6,1.5l0.7-0.1c0,0,0.2,0,0.6-0.1c-0.2-0.2-0.5-0.4-0.8-0.5C179.6,194.6,178.9,194.3,178.2,194.1"/>
<path class="st90" d="M181,195.5c-0.4,0-0.6,0.1-0.6,0.1l-0.7,0.1c0.5,0.5,0.9,1,1.2,1.6c0.2,0.4,0.4,0.9,0.3,1.4l1.5-0.1
	c-0.1-0.7-0.3-1.4-0.8-1.9C181.8,196.1,181.4,195.8,181,195.5"/>
<path class="st3" d="M181,31.7c0,0,0.8,1.9,4.1,2.2c2.1,0.1,4.1-0.5,5.7-1.8c-0.9,2.9-1,6-0.3,8.9l-4.7,3.7c0,0-5.2-1.7-5.5-6.5
	S181,31.7,181,31.7z"/>
<path class="st3" d="M182.4,15.2c0,0-2.6,2.8-4.3,3.5s-7.9-0.5-9.8,0.3s-5.9,5.4-5.9,5.4s4-6.1,5.7-6.9s6.1,0.7,9.3,0.1
	C179.3,17.2,181,16.4,182.4,15.2z"/>
<path class="st3" d="M192.1,14.8c0,0-5.7,2.3-7,5s0,4.2-0.8,5.1s-2.9,1.4-2.9,1.4s2.3-1.8,2.1-2.9c-0.6-2.2-0.1-4.5,1.3-6.2
	C187.1,14.5,192.1,14.8,192.1,14.8z"/>
<path class="st6" d="M171.8,66.4l-4.2-0.3c0,0,0.1,1,0.4,2.4h0.1l0.6,2.6c0.3,0.9,0.7,1.7,1.4,2.3c0.5-1.7,1.3-3.3,2.4-4.7l6-3.3
	L171.8,66.4z"/>
<path class="st91" d="M123.6,105.1l-6-18.5c-0.3-1.3,0.4-2.6,1.7-3.1l9.4-1.7c1.2-0.2,2.4,0.5,2.7,1.6l9.2,28.9
	c0.4,1.1-0.2,2.3-1.2,2.7c-0.1,0-0.2,0.1-0.4,0.1l-11.1,1.1c-1,0-1.9-0.7-2.1-1.6l-2.3-9.4L123.6,105.1"/>
<path class="st2" d="M138.3,113l-9.4-29.7c-0.2-0.8-1-1.3-1.8-1.2l-10.9,2c-0.9,0.2-1.5,1.2-1.2,2.1c0,0.1,0,0.1,0,0.2l6.1,18.9v0.1
	l1.9,8.1c0.1,0.6,0.3,1.2,0.5,1.7c0.5,1,1.5,1.5,2.6,1.4l10.8-1.2c0.9-0.2,1.6-1.1,1.4-2C138.4,113.2,138.3,113.1,138.3,113"/>
<path class="st76" d="M127.1,84.7l-2.6,25.5l-5.9-18.3c0,0-2.2-5.6,0-5.6L127.1,84.7z"/>
<path class="st5" d="M138.2,104.8l-11.3,0.5l-8.8-2.1c-0.5-0.1-1,0.2-1.1,0.7c-0.2,0.9,0,2.1,2.1,2.5c0,0-3.6,1.7,2.1,3.5l2.8,1.6
	c0,0-0.2,2.5,3.9,3.7l5,1c0.8,0.2,1.6,0.1,2.3-0.1l3.5-1l10,7.5l3.8-9.2l-4.2-3.1l-6-10.8l-6.2-0.7l1.9,6"/>
<path class="st6" d="M119,106.5l5.3,1.1c0,0,7.9,0.3,9.3-0.4c-2.6,0.9-5.4,1.4-8.1,1.4l-7-1.7L119,106.5z"/>
<path class="st6" d="M121.4,110.1c0,0,5,2.7,9.3,1.1l4.2-1l-5.4,0.6l-3.4-0.1L121.4,110.1z"/>
<path class="st6" d="M124.5,113.1c0,0,5.7,2.4,10.6,0.6l-2.7,0.1l-4.7-0.6L124.5,113.1z"/>
<path class="st92" d="M153.7,123.4c0,1.2-0.8,2.2-2,2.5c0.5,0,0.9-0.2,1.4-0.4c0.4-0.5,0.5-1,0.5-1.6l0.2,0.2
	C153.8,123.9,153.8,123.7,153.7,123.4"/>
<path class="st93" d="M138.2,115.6h-0.5l14,10.3l0,0c1.2-0.3,2-1.3,2-2.5c-0.1-0.3-0.3-0.6-0.5-0.8l-3.3-2.5l-1.1,2.6l-9.4-7.1
	C139,115.6,138.6,115.6,138.2,115.6"/>
<path class="st93" d="M139.5,115.6l9.4,7.1l1.1-2.6l-1.5-1.1C145.9,117.1,142.8,115.9,139.5,115.6"/>
<path class="st46" d="M179.1,146.3l1.4,0.4C180.3,146.6,179.8,146.4,179.1,146.3"/>
<path class="st94" d="M153.9,124.2c0.1,0.6-0.3,1.1-0.8,1.4c-0.5,0.6-1.3,0.9-2.1,0.8c-0.4,0-0.9-0.1-1.3-0.2l18.8,17.3l10.5,2.8
	c0.6,0.2,1.1,0.3,1.4,0.4l0,0l-11.1-5.6l-4.8-6.1L153.9,124.2"/>
<path class="st95" d="M153.7,123.9c0,0.6-0.2,1.1-0.5,1.6c0.5-0.2,0.8-0.8,0.8-1.4L153.7,123.9"/>
</svg>
