<?xml version="1.0" encoding="utf-8"?>
<!-- Generator: Adobe Illustrator 23.0.6, SVG Export Plug-In . SVG Version: 6.00 Build 0)  -->
<svg version="1.1" id="Layer_1" xmlns="http://www.w3.org/2000/svg" xmlns:xlink="http://www.w3.org/1999/xlink" x="0px" y="0px"
	 viewBox="0 0 294.4 270.9" style="enable-background:new 0 0 294.4 270.9;" xml:space="preserve">
<style type="text/css">
	.st0{fill:#CDDFF8;}
	.st1{fill:#8C6749;}
	.st2{fill:#6D503B;}
	.st3{fill:#31261F;}
	.st4{fill:#78C6C1;}
	.st5{fill:#3A312C;}
	.st6{fill:#F4E4D9;}
	.st7{fill:#00A698;}
	.st8{fill:#FFFFFF;}
	.st9{fill:#D1445C;}
	.st10{fill:#F9B450;}
	.st11{fill:#0770E3;}
	.st12{fill:#CDCDD7;}
	.st13{fill:#A5B3D1;}
	.st14{fill:#A8374E;}
	.st15{fill:#C89143;}
	.st16{fill:#065ABF;}
	.st17{fill:#EDB4BE;}
	.st18{fill:#A57B58;}
	.st19{fill:#548A91;}
	.st20{fill:#624837;}
	.st21{fill:#4C382C;}
	.st22{fill:#735642;}
	.st23{fill:#007472;}
	.st24{fill:#221B17;}
	.st25{fill:#B2B2BF;}
	.st26{clip-path:url(#SVGID_2_);}
	.st27{fill:#69697F;}
	.st28{fill:#8F9CBA;}
	.st29{fill:#49495F;}
	.st30{fill:#54546B;}
	.st31{fill:#8F8FA1;}
	.st32{fill:#FFE7E0;}
	.st33{clip-path:url(#SVGID_4_);}
	.st34{fill:#454560;}
	.st35{fill:#8F90A0;}
</style>
<title>SDCRT-1129_Illus_Launch_01_WebHomepage_TravelYourWay</title>
<path class="st0" d="M292.5,115.2c-1.8,26.2-24.5,46.1-50.7,44.3c-26.2-1.8-46.1-24.5-44.3-50.7c1.8-26.2,24.5-46.1,50.7-44.3
	C274.4,66.2,294.2,88.9,292.5,115.2C292.5,115.2,292.5,115.2,292.5,115.2"/>
<circle class="st0" cx="142.6" cy="65.5" r="47.6"/>
<path class="st1" d="M100.2,237.2l1,26c8.2-1,16.5-0.4,24.4,1.9l60.7-0.5c0,0,20.3,4.3,24.1-3.3l-6.2-34.1l-87.3,9.8L100.2,237.2z"
	/>
<path class="st2" d="M111.4,238.5l-0.2-1l-11.3-0.1l1.4,25.7c0,0,1-0.5,6.2-0.4l-0.3-23.7L111.4,238.5z"/>
<path class="st2" d="M195.5,264.5l-7.9,0.1c3.2,0.3,6.5,0.3,9.7,0.1C196.2,264.6,195.5,264.5,195.5,264.5z"/>
<path class="st3" d="M114.2,165.3c0,0-23.1,12.1-6.6,34.9l8.2,1.9l18.2,1.1l-8.1-43.4L114.2,165.3z"/>
<path class="st3" d="M183,172.1c0,0,14.4,1.9,9,17.1l-13.8,17.6l-7.9-1.1l-1.6-13.3l9.5-19.5L183,172.1z"/>
<path class="st4" d="M98.7,238l24.4,8.1c-1,6.4-0.2,13,2.4,19c0,0,22.8,7.6,40.1,1.1l20.6-1.6l-3.5-26.6l24.7-6
	c0,0,3-44.4-14.1-48.5c0,0-6.5-4.3-12.7,6.2l-10,12.9l-0.9-2.5l-25.1,11l-10.2-5.3l-10.2-11.5c0,0-15.4-10.3-23,14.1L98.7,238"/>
<path class="st1" d="M148.9,210.3c0,0,22.2,4.9,28.7-26.3l1.6-8.9c0,0,7.6,1.4,7.9-7.4c0.1-1.7-0.7-3.3-2.1-4.2
	c-1.7-1.2-3.8-1.6-5.8-1.2l-6.5-19.5l-10.9-11.5c-2.8,3.7-6.1,6.9-9.7,9.6c-5.4,3.8-25.2,17.4-26.3,19s-7.9,10.3-7.9,10.3
	s-4.2,3.2-3.5,8.4c0.4,2.5,2.7,4.3,5.2,3.9c0.1,0,0.2,0,0.3-0.1l4.1-0.9C124.1,181.6,124,212,148.9,210.3"/>
<path class="st5" d="M145.1,173.8c0,0,0.6-4.6-2.9-5.4s-6.5,1.3-9.3,0.6s-3.7-1.7-3.7-1.7c0.4,1.7,1.6,3,3.3,3.6
	c2.7,0.7-0.7,4.1,4.2,4.9"/>
<path class="st3" d="M164.8,129.5c0,0-4,28.1-30.3,39.9l-7,1.9L118,170l-2.4-1c0,0-8.1-11.9-5.9-25
	C109.6,144.1,150.6,103.2,164.8,129.5z"/>
<path class="st3" d="M166.5,126.9c0,0-7.3-0.3-4.1,8.2c2,2.1,4.4,4,7,5.4c0,0,4.3,3.2,4.1,8.2c0,0-0.8,10.4,4.1,14.6
	c0,0,4.5-2.6,8.2,1C185.9,164.2,195.5,128.2,166.5,126.9z"/>
<path class="st2" d="M186.6,236.6c0,0,2.7,11,5.1,18.8c0,0,1.1,8.8,0.4,9.4l-7.2-0.5l-2-26.3L186.6,236.6z"/>
<path class="st5" d="M169.9,157.6c-0.4-0.3-3.3-3.7-5.9-4.5s-5.2,1.2-5,2.8s1.6,2.1,2,2.3c2.8,0.5,5.7,0.8,8.5,0.9
	C170.1,159,169.9,157.6,169.9,157.6z"/>
<path class="st3" d="M159.7,188.3l-0.6,0.1c-1,1.1-3.8,2.1-10.9,1.6c-0.6,0-1.2-0.3-1.6-0.8v0.3v1.3c0,0.5,0.8,1,1.7,1
	C161.8,192.6,159.7,188.2,159.7,188.3"/>
<path class="st5" d="M157.7,171.9c0,0-1-5,2.4-6.5s6.7,0.6,9.5-0.6s3.6-2.4,3.6-2.4s-0.3,3.2-3,4.4s1.1,4.5-3.8,6"/>
<path class="st6" d="M157.8,171.5c-0.2-1.9,1-3.8,2.9-4.4c3.3-1.3,6.8-0.8,7.3,2.1s-0.6,4.1-5.7,4.3S157.8,171.5,157.8,171.5z"/>
<path class="st6" d="M145,173.5c0,0,0.1-2.8-3.2-3.5s-6.7,0-6.9,2.7s1,3.6,5.9,3.2S145,173.5,145,173.5z"/>
<path class="st5" d="M166.6,171c0.8-1.1,0.7-2.7-0.2-3.6c-1.7-1.7-4.5-1-5.1,0.7c-0.4,0.8-0.5,1.7-0.3,2.5
	C162.7,171.3,164.7,171.5,166.6,171z"/>
<path class="st5" d="M144,173.4c0.4-0.8,0.4-1.8-0.1-2.6c-0.9-1.3-1.7-1.6-3.5-1.2s-1.6,3.2-0.9,4.1
	C141,173.9,142.5,173.8,144,173.4z"/>
<path class="st7" d="M140.4,268.2c0,0-16.9-4.6-14.3-28.9l-0.8-14.6l-2.2,10.6l-7-6.2l4.9,9.2l-3.6,5.9l4.7,2.2l1.5,18.2l8.2,2.1
	L140.4,268.2z"/>
<path class="st8" d="M275.8,118.2c-3.2,16.3-19,26.8-35.2,23.6c-16.3-3.2-26.8-19-23.6-35.2s19-26.8,35.2-23.6c0,0,0,0,0,0
	C268.4,86.2,279,102,275.8,118.2"/>
<path class="st9" d="M228,132.7c-0.3-2.7-0.1-5.4,0.4-8c1.9-10.1,6.2-19.5,12.5-27.6c4.7-6,10.3-10.3,17.9-11.8
	c-2-1-4.1-1.7-6.2-2.2c-16.7-3.3-32.6,7-35.8,23.4c-2.2,11.5,2.4,23.3,11.9,30.2C228.5,135.3,228.2,134,228,132.7"/>
<path class="st10" d="M260.3,86.4h0.3c-0.8-0.5-1.6-0.9-2.5-1.2c-29.3,2.9-33.6,34.9-32.2,48.9c3.3,3.6,6.1,4.8,10.5,6.6
	C246.5,104.4,260.3,86.4,260.3,86.4"/>
<path class="st11" d="M244.7,142.4c14.9,0.7,28.1-9.6,31.1-24.3c2.4-12.4-3.2-24.9-14-31.3C262.3,89.9,267.4,127.1,244.7,142.4"/>
<path class="st12" d="M275.9,117.8l-0.1,0.3l0,0L275.9,117.8"/>
<path class="st13" d="M274.5,122.8c-0.2,0.7-0.5,1.3-0.8,2C269.5,134,261,140.5,251,142c-0.6,0.1-1.3,0.2-1.9,0.3
	C260.6,141.2,270.5,133.7,274.5,122.8"/>
<path class="st12" d="M273.7,124.8c-4.2,9.1-12.7,15.6-22.7,17.2C261,140.4,269.5,133.9,273.7,124.8"/>
<path class="st13" d="M227.8,135.9c3.3,3,8,4.9,12.8,5.9c1.4,0.3,2.8,0.5,4.2,0.5l0,0c-1.4-0.1-2.8-0.3-4.2-0.6
	c-1.4-0.3-2.8-0.7-4.2-1.1l0,0l-0.6-0.2c-0.8-0.3-1.7-0.7-2.5-1.1c-2-0.8-3.8-2-5.4-3.4L227.8,135.9"/>
<path class="st12" d="M233.3,139.4c0.8,0.4,1.6,0.7,2.5,1.1C234.9,140.1,234.1,139.7,233.3,139.4 M256.3,129.1
	c-0.8,0.6-1.6,1.2-2.5,1.7s-3.7,1.3-4.7,1.8s-3,2.1-4,2.5c-2.4,1-5,1.5-7.6,1.5c-0.4,1.3-0.8,2.6-1.1,4c1.4,0.5,2.8,0.8,4.3,1.1
	c1.4,0.3,2.8,0.4,4.2,0.5C249.7,138.9,253.7,134.4,256.3,129.1"/>
<path class="st14" d="M227.6,135.8l0.1,0.1l0.1,0.1L227.6,135.8"/>
<path class="st15" d="M226.4,134.5c0.4,0.4,0.8,0.8,1.2,1.2l0.2,0.2c1.6,1.4,3.5,2.5,5.4,3.4c0.8,0.4,1.6,0.7,2.5,1.1l0.6,0.2l0,0
	c0.4-1.4,0.8-2.7,1.1-4h-0.2C233.6,136.5,229.9,135.8,226.4,134.5"/>
<path class="st16" d="M270.2,94.5c0.2,5.4,1,11.4-1.1,17c-2.5,7-6.9,13.1-12.7,17.7c-2.7,5.3-6.6,9.8-11.5,13.2l0,0
	c0.6,0,1.1,0,1.6,0c0.9,0,1.8,0,2.7-0.1c0.6-0.1,1.3-0.1,1.9-0.3c9.9-1.6,18.4-8.1,22.6-17.2c0.3-0.6,0.6-1.3,0.8-2
	c0.6-1.5,1-3,1.3-4.6v-0.1l0,0l0.1-0.3C277.4,109.4,274.7,100.8,270.2,94.5"/>
<path class="st8" d="M254.4,83.6c-1,1.6,0.7,4.4,3.7,6.3c3,1.9,6.9,2.3,7.9,0.7c0.1-0.2,0.2-0.4,0.2-0.6c-3.3-3.1-7.2-5.4-11.5-6.8
	C254.6,83.3,254.4,83.5,254.4,83.6z"/>
<path class="st17" d="M245.5,84.9c-3.2,1-16.8-0.9-22.1,17.7c0.1,0.9,0.2,1.8,0.3,2.7c8.8-17.2,17.7-20,22.8-20h0.6l-0.1-0.2
	L245.5,84.9"/>
<path class="st7" d="M114.7,192.3c0,0-10.7,7.7-9.3,18.1c0,0,3.1,10.5,0.3,14.6c0,0,2.1,7.8,5,16.9L98.8,238l2.2-27.3
	C101,210.7,103.9,193,114.7,192.3z"/>
<path class="st7" d="M181.8,187.9c0,0,15.6,5,15,29.2c0,0-1,12.5,1.6,17.4l9-2.5c0,0,1.8-22.1-4.4-38.2c-1.8-4.7-6.4-9.8-11.3-10.8
	C188,182.1,184.8,182.5,181.8,187.9z"/>
<path class="st2" d="M151.6,205.6c-24.9,1.6-24.7-25.5-24.7-25.5l-4.1,0.9c-0.3,0.1-0.5,0.1-0.8,0H122c-4.7-0.2-6.4-4-7.1-6.5
	c-0.4,1.3-0.6,2.8-0.4,4.2c0.5,2.7,3.1,4.5,5.8,4c0,0,0,0,0.1,0l3.8-1c0,0-0.3,30.3,24.6,28.7c0,0,15.9,3.6,24.7-14
	C164.5,208.9,151.6,205.7,151.6,205.6"/>
<polygon class="st7" points="180.8,220.4 186.3,226.2 186.6,236.6 182.8,238.1 "/>
<path class="st18" d="M149.4,219.8c0,0,1.9,7.6,8.4,9.8l11.9,36l16.9-1.1l6.6,0.4l-25.3-40.5c0,0-1.1-17.1-4.3-20.1l-8.4-15.2
	c0,0-4.6-0.5-0.5,7.6l1.6,7.6c0,0-5.7-6-6,1.9c0,0-5.4-4-4.6,1.4c0,0-4.6-1.2-3.8,5.9c0,0,0.5,8.4,3.2,5.4l1.6-5.4L149.4,219.8"/>
<path class="st7" d="M142.1,209.9c-0.7,0-1.3-0.2-1.9-0.5c-0.5,1.3-0.7,2.7-0.6,4.1c0,0,0.5,8.4,3.2,5.4l0.1-0.4
	c-0.6-1.6-1-3.3-1.1-5.1C141.8,212.3,141.9,211.1,142.1,209.9"/>
<path class="st19" d="M140.5,209.5c0.3,0.1,0.7,0.2,1.1,0.3C141.2,209.7,140.8,209.6,140.5,209.5 M140,209.4L140,209.4l0.2,0.1l0,0
	L140,209.4"/>
<path class="st20" d="M144.8,204.9c-0.3,0-0.6,0.1-0.9,0.2c0.6,0.1,1.2,0.2,1.9,0.3c0.1-0.1,0.1-0.2,0.2-0.3
	C145.7,205,145.2,204.9,144.8,204.9"/>
<path class="st21" d="M144,205.2c-0.5,0.4-0.8,1.1-0.5,2.7c-0.3-0.1-0.6-0.1-0.9-0.1c-1.1,0-2.1,0.6-2.6,1.6l0.2,0.1v-0.1
	c0.1,0.1,0.2,0.1,0.3,0.1c0.3,0.1,0.7,0.2,1.1,0.3l0.5,0.1c0.4-1.6,2-2.5,3.6-2.2c-0.2-0.7-0.1-1.5,0.2-2.2
	C145.2,205.4,144.5,205.3,144,205.2"/>
<path class="st22" d="M146.1,205.2c-0.1,0.1-0.2,0.2-0.2,0.3c-0.3,0.7-0.3,1.5-0.2,2.2c-1.6-0.4-3.2,0.6-3.6,2.2h0.1
	c0,0,0,0.1,0,0.1l0,0c0.3-1.3,1.4-2.3,2.8-2.2c0.3,0,0.6,0,0.9,0.1c-0.2-1.4,0-2.2,0.5-2.6L146.1,205.2"/>
<path class="st23" d="M140.2,209.4L140.2,209.4L140.2,209.4c0.6,0.3,1.2,0.4,1.9,0.6c0,0,0-0.1,0-0.1h-0.1l-0.5-0.1
	c-0.4,0-0.7-0.1-1.1-0.3C140.4,209.5,140.3,209.4,140.2,209.4"/>
<path class="st20" d="M152.9,191.9h-1.2h-0.8c0.1,1.7,0.6,3.4,1.4,4.8l1.2,5.7c1,0.5,1.9,1.1,2.6,1.9l-1.6-7.6
	C153.8,195.2,153.2,193.6,152.9,191.9 M153.6,189.6c-0.6,0-1.2,0.1-1.7,0.4c0.5,0,1,0,1.4,0c0.1-0.2,0.2-0.3,0.4-0.4L153.6,189.6"/>
<path class="st24" d="M153.3,190c-0.4,0-0.9,0-1.4,0c-0.6,0.4-0.9,1.1-0.9,1.8h0.8h1.2C152.8,191.2,152.9,190.5,153.3,190"/>
<path class="st22" d="M153.6,189.6c-0.1,0.1-0.3,0.2-0.4,0.4c-0.3,0.6-0.4,1.2-0.4,1.9c0.3,1.7,0.8,3.4,1.7,4.9l1.6,7.6
	c-0.8-0.8-1.7-1.4-2.6-1.9v0.1c1,0.5,1.9,1.1,2.7,1.9l-1.6-7.8c-2-3.9-1.9-5.9-1.3-6.8l0.8-0.3C154,189.7,153.8,189.7,153.6,189.6"
	/>
<path class="st20" d="M150.1,202.3c-1,0-1.8,0.7-2.1,2.8c0.5,0.2,0.9,0.4,1.4,0.6h0.9c0-0.8,0.2-1.6,0.6-2.4
	c0.1-0.3,0.3-0.5,0.5-0.7C151,202.4,150.5,202.3,150.1,202.3"/>
<path class="st21" d="M150.2,205.8h-0.9c0.3,0.2,0.6,0.3,0.8,0.5C150.2,206.1,150.2,205.9,150.2,205.8"/>
<path class="st22" d="M148,205.1c0,0.1,0,0.1,0,0.1c0.8,0.3,1.5,0.7,2.2,1.1v-0.1c-0.3-0.2-0.5-0.4-0.8-0.5
	C149,205.5,148.5,205.2,148,205.1 M151.4,202.6c-0.2,0.2-0.4,0.4-0.5,0.7C151,203,151.2,202.8,151.4,202.6L151.4,202.6"/>
<path class="st7" d="M158,229.4c-6.5-2.2-8.4-9.8-8.4-9.8l-2.7-6.2l-0.9,3.1l1.4,3.1c0,0,1.9,7.6,8.4,9.8l5.4,37.9l4.7-1.1l4.2-0.6
	L158,229.4z"/>
<path class="st1" d="M157.8,229.6l-1.3-0.6C156.9,229.2,157.4,229.4,157.8,229.6z"/>
<path class="st1" d="M166.3,235.6c-1.5-7.3-8.5-6-8.5-6l11.9,36.3l10-1C171.3,259.1,166.3,235.6,166.3,235.6z"/>
<path class="st8" d="M185.6,176c0,1.2-1,2.2-2.2,2.2c-1.2,0-2.2-1-2.2-2.2c0-1.2,1-2.2,2.2-2.2c0,0,0,0,0,0
	C184.6,173.8,185.6,174.8,185.6,176z"/>
<path class="st8" d="M163.2,248.1c2.9,0.5,12.9,1.7,17-5.1l0.2-0.3c0.1-0.2,0.3-0.3,0.5-0.2c0.1,0,0.1,0.1,0.1,0.1l0.7,0.9
	c0.3,0.4,0.4,0.9,0.2,1.4c-0.8,1.9-3.6,6.8-12.7,6.9l-6.6-1.1c-0.4-0.1-0.7-0.5-0.7-1c0,0,0,0,0,0l0.2-0.9
	C162.3,248.3,162.7,248,163.2,248.1z"/>
<path class="st25" d="M170.4,248.4c-2.5,0.2-4.9,0.1-7.4-0.3c-0.3-0.1-0.7,0.2-0.8,0.5l-0.3,1.2c-0.1,0.4,0.1,0.8,0.5,0.9
	c0,0,0,0,0.1,0l6.7,1.1c0.8,0,1.5-0.1,2.3-0.1L170.4,248.4z"/>
<path class="st1" d="M152.7,202.2c0,0-2,2.1,0.3,7.7l-2.7-3.6C150.3,206.3,149.8,202.1,152.7,202.2z"/>
<polygon class="st2" points="145.7,217.6 146.2,212.6 145.5,209.9 147.6,212.8 149.6,219.7 146.8,213.8 "/>
<path class="st1" d="M147.2,204.9c-0.1,1.8,0.2,3.7,0.9,5.4l-2.3-2.6C145.8,207.8,145,204.6,147.2,204.9z"/>
<path class="st1" d="M143.3,208.2c0,0-0.9,4.1-0.2,6.7c0,0,0.3,4.8,1.7,4.5l-0.2,0.1c-0.5,0.3-1.1,0.1-1.4-0.3L143,219
	c-0.2-0.3-0.4-0.6-0.4-0.9C142.2,216,140.7,209.5,143.3,208.2z"/>
<path class="st1" d="M154.1,189.3c-0.5,1.9-0.2,4,0.8,5.7l0.3,0.7l1.8,6.9l1.9,6.5l-2.3-2.8l-2.1-9.6
	C154.5,196.6,151,190.9,154.1,189.3z"/>
<path class="st0" d="M99.2,132.6c0,26.3-21.3,47.6-47.6,47.6C25.3,180.2,4,158.9,4,132.6c0-26.3,21.3-47.6,47.6-47.6c0,0,0,0,0,0
	C77.9,84.9,99.2,106.2,99.2,132.6C99.3,132.5,99.3,132.5,99.2,132.6"/>
<g>
	<defs>
		<path id="SVGID_1_" d="M99.2,132.6c0,26.3-21.3,47.6-47.6,47.6C25.3,180.2,4,158.9,4,132.6c0-26.3,21.3-47.6,47.6-47.6
			c0,0,0,0,0,0C77.9,84.9,99.2,106.2,99.2,132.6C99.3,132.5,99.3,132.5,99.2,132.6"/>
	</defs>
	<clipPath id="SVGID_2_">
		<use xlink:href="#SVGID_1_"  style="overflow:visible;"/>
	</clipPath>
	<g class="st26">
		<path class="st27" d="M45.3,149.8l19.4-29.8l10.4,2.1l19.7,42c0,0-13.3,13-21.4,15.8C73.3,180,47.2,152.4,45.3,149.8"/>
		<polyline class="st8" points="68.4,105.6 57,131.4 65.3,126.5 69.6,133.2 73.3,126.7 80.4,132.5 68.4,105.6 		"/>
		<path class="st25" d="M7.7,169.5l27.9-50.1l14,2.8L75,180c0,0-27.8,0.2-38.7,3.9C36.3,184,10.4,172.8,7.7,169.5"/>
		<polyline class="st8" points="40.7,100 25.6,135.7 35,127.5 40.7,136.5 46.1,128.1 57.5,138.7 40.7,100 		"/>
	</g>
</g>
<path class="st25" d="M91.6,158.4l-0.3,0.5L91.6,158.4L91.6,158.4"/>
<polyline class="st28" points="79.6,131.8 85.1,143.6 80.1,132.3 79.6,131.8 "/>
<path class="st29" d="M73.3,126.8L73.3,126.8l-1.2,18l7.3,4.7l5.6,17.1l6.3-7.6l0.3-0.5l-6.5-14.8l-5.5-11.8L73.3,126.8"/>
<polyline class="st25" points="68.4,105.6 68.4,105.6 68.1,125.6 71.6,122.5 73.3,126.7 79.6,131.8 80.1,132.3 68.4,105.6 "/>
<path class="st12" d="M71.2,176c-6.2,2.8-12.9,4.2-19.6,4.2c-1.4,0-2.8-0.1-4.1-0.2l0,0c0,0,1.7,0.2,4.2,0.2
	C56.7,180.2,65.1,179.6,71.2,176"/>
<polyline class="st30" points="56.3,137.6 64.9,157 56.8,138 56.3,137.6 "/>
<path class="st31" d="M46.1,128.1l4.2,17.2l-7.5,8.2l11.1,11.2l-6.4,15.3c1.4,0.1,2.8,0.2,4.1,0.2c6.8,0,13.5-1.4,19.6-4.2
	c0.4-0.2,0.9-0.5,1.3-0.8l-7.7-18.1l-8.5-19.5L46.1,128.1 M46.1,128.2l-3.4,5.2l-0.8,4.2L46.1,128.2"/>
<polyline class="st12" points="40.7,100 45.4,119 42.7,133.4 46.1,128.1 56.3,137.6 56.8,138 40.7,100 "/>
<circle class="st32" cx="142.7" cy="65.2" r="47.6"/>
<circle class="st0" cx="142.7" cy="65.2" r="47.6"/>
<g>
	<defs>
		<path id="SVGID_3_" d="M190.4,65.2c0,26.3-21.3,47.6-47.6,47.6S95.1,91.5,95.1,65.2s21.3-47.6,47.6-47.7c0,0,0,0,0,0
			C169,17.6,190.4,38.9,190.4,65.2"/>
	</defs>
	<clipPath id="SVGID_4_">
		<use xlink:href="#SVGID_3_"  style="overflow:visible;"/>
	</clipPath>
	<g class="st33">
		<polygon class="st34" points="143,34.4 146,34.6 147,50.7 149.8,51.5 150.5,53.6 154.8,54.7 155.1,57.8 158.9,58.9 158.6,63.7 
			162.4,66 162.1,71.8 165.9,74.2 165.9,89.8 169.7,92.7 169.7,122.5 147,120.9 140.3,68.4 		"/>
		<polygon class="st10" points="119.2,122.8 118.6,89 120.7,88.7 121,72.1 125,71 125.2,63.4 127.6,62.9 127.3,59.7 129.7,59.2 
			130.5,55.8 133.4,55.5 133.4,52.8 136.3,52.6 138.9,34.4 143.6,34.4 144.5,52.8 146.6,53.1 146.8,55.4 149.5,56 149.2,59.2 
			151.4,59.4 151.1,66 153.5,66.3 153.7,84 156.4,84.5 155,122.8 		"/>
		<polygon class="st35" points="134.7,64 135.2,122.9 137.9,123.2 137.9,63.8 		"/>
		<polygon class="st35" points="139.6,63.5 140.1,122.9 142,122.6 142.2,63.3 		"/>
		<polygon class="st34" points="131.3,70.5 134.1,71.3 133.9,86.9 135.5,87.9 135.1,123.2 131.9,123.2 132.5,88.3 130.5,87.1 		"/>
		<polygon class="st35" points="124.2,90.9 124.6,123 126.8,123.2 126.8,90.1 		"/>
		<polygon class="st35" points="128.2,89.9 128.6,123 130.1,122.8 130.3,90.1 		"/>
		<polygon class="st35" points="120.9,90.7 122.2,90.9 122.5,123.2 120.9,123.2 		"/>
		<polygon class="st35" points="124.7,74.5 125,87.4 126.7,87.5 126.7,74.2 		"/>
		<polygon class="st35" points="127.8,74.1 128.1,87.4 129.4,87.3 129.5,74.2 		"/>
		<polygon class="st35" points="122.2,74.4 123.2,74.5 123.4,87.5 122.2,87.5 		"/>
		<polygon class="st35" points="128.8,64.6 129.1,69 130.8,69 130.8,64.5 		"/>
		<polygon class="st35" points="132,64.1 132.3,68.6 133.5,68.6 133.7,64.1 		"/>
		<polygon class="st35" points="126.2,65 127.3,65 127.5,69.4 126.2,69.4 		"/>
		<polygon class="st35" points="144.5,63.3 144.8,67.7 146.5,67.7 146.5,63.2 		"/>
		<polygon class="st35" points="147.7,62.9 148,67.4 149.2,67.4 149.4,62.9 		"/>
		<polygon class="st35" points="147.1,70.5 147.4,83.4 149.1,83.5 149.1,70.2 		"/>
		<polygon class="st35" points="150.2,70.1 150.5,83.4 151.7,83.4 151.9,70.2 		"/>
		<polygon class="st35" points="144.5,70.4 145.5,70.5 145.8,83.5 144.5,83.5 		"/>
		<polygon class="st35" points="146.7,88.4 147.1,122.6 149.3,122.8 149.3,87.6 		"/>
		<polygon class="st35" points="150.7,87.3 151.1,122.6 152.7,122.4 152.9,87.6 		"/>
		<polygon class="st35" points="143.5,88.2 144.8,88.4 145.1,122.8 143.5,122.8 		"/>
		<path class="st35" d="M140.9,34.2l-1.3,18.4l2.6-0.1l-0.4-18.1C141.8,33.9,141.3,33.8,140.9,34.2z"/>
	</g>
</g>
<path class="st18" d="M158.8,180.8c0,0-2.9-3.5-4.1-4.1s-0.5,4.9-0.2,6S158.8,180.8,158.8,180.8z"/>
<path class="st2" d="M145.9,183.1h5.9c2.9,0,6.4-2.4,7-2.4s-0.6,5.9-5.3,6.5S145.9,183.1,145.9,183.1z"/>
<path class="st8" d="M121.9,183.8c0,1.2-1,2.2-2.2,2.2s-2.2-1-2.2-2.2c0-1.2,1-2.2,2.2-2.2c0,0,0,0,0,0
	C120.9,181.6,121.9,182.6,121.9,183.8z"/>
<path class="st35" d="M139.6,52.8L139.6,52.8c-0.1,0-0.2-0.1-0.2-0.3c0.5-8.9-0.7-11-1.2-11.4c-0.2-0.2-0.3-0.2-0.3-0.1
	c-0.1,0-0.3,0-0.3-0.2c0,0,0,0,0,0c0-0.1,0-0.3,0.2-0.3l0,0c0.3-0.1,0.5,0,0.7,0.2c0.9,0.7,1.9,3.3,1.4,11.9
	C139.9,52.7,139.7,52.8,139.6,52.8C139.6,52.8,139.6,52.8,139.6,52.8z"/>
<path class="st35" d="M142.3,52.8c-0.1,0-0.2-0.1-0.2-0.2c-0.4-8.5,0.5-11.2,1.4-11.9c0.2-0.2,0.5-0.2,0.7-0.2
	c0.1,0,0.2,0.2,0.2,0.3l0,0c0,0.1-0.2,0.2-0.3,0.2c0,0-0.1,0-0.3,0.1c-0.5,0.5-1.7,2.5-1.2,11.4C142.6,52.6,142.5,52.7,142.3,52.8
	C142.3,52.8,142.3,52.8,142.3,52.8L142.3,52.8z"/>
<path class="st35" d="M139.1,52.8L139.1,52.8c-0.1,0-0.2-0.1-0.2-0.3c0.4-4.2-0.4-5.5-0.9-6c-0.2-0.2-0.4-0.3-0.7-0.3
	c-0.1,0-0.3-0.1-0.3-0.2c0,0,0,0,0,0c0-0.1,0.1-0.3,0.2-0.3c0.4,0,0.8,0.1,1.1,0.4c1,0.9,1.3,3.1,1,6.4
	C139.4,52.7,139.3,52.8,139.1,52.8C139.1,52.8,139.1,52.8,139.1,52.8z"/>
<path class="st35" d="M142.8,52.8c-0.1,0-0.2-0.1-0.2-0.2c-0.1-3.6,0.4-5.9,1.2-6.6c0.2-0.2,0.4-0.2,0.6-0.2c0.1,0,0.2,0.2,0.2,0.3
	c0,0.1-0.1,0.2-0.3,0.2c-0.1,0-0.2,0.1-0.2,0.1c-0.4,0.4-1,1.7-1,6.2C143,52.6,142.9,52.7,142.8,52.8
	C142.8,52.8,142.8,52.8,142.8,52.8L142.8,52.8z"/>
<path class="st34" d="M137.8,34.9c0-2.6,1.5-5.2,4.1-5.2c2.8,0.2,5,2.4,5.2,5.2"/>
<polygon class="st27" points="143.8,30.1 142,30.1 142,4.9 142.8,4.9 "/>
<polygon class="st10" points="142.3,30.1 140.7,30.1 141.5,4.9 142.3,4.9 "/>
<path class="st10" d="M143.7,3.6c0,0.9-0.7,1.6-1.6,1.6c-0.9,0-1.6-0.7-1.6-1.6c0-0.9,0.7-1.6,1.6-1.6l0,0
	C143,2.1,143.7,2.8,143.7,3.6z"/>
</svg>
